<?xml version="1.0" encoding="UTF-8"?>
<svg width="24px" height="24px" viewBox="0 0 24 24" version="1.1" xmlns="http://www.w3.org/2000/svg" xmlns:xlink="http://www.w3.org/1999/xlink">
    <!-- Generator: Sketch 61.2 (89653) - https://sketch.com -->
    <title>2 - CHARTE / Icons / default / Access GE</title>
    <desc>Created with Sketch.</desc>
    <g id="2---CHARTE-/-Icons-/-default-/-Access-GE" stroke="none" stroke-width="1" fill="none" fill-rule="evenodd">
        <g id="Globalexam" transform="translate(3.000000, 5.000000)" fill="#402955">
            <path d="M6.32781602,13.4062628 L3.37483521,13.4062628 C1.51164494,13.4062628 0,11.9050406 0,10.0546971 L0,3.35156569 C0,1.50122213 1.51164494,0 3.37483521,0 L6.32781602,0 C6.55983595,0 6.74967043,0.18852557 6.74967043,0.418945711 L6.74967043,1.81543142 C6.74967043,2.04585156 6.55983595,2.23437713 6.32781602,2.23437713 L3.37483521,2.23437713 C2.75259997,2.23437713 2.24989014,2.73362077 2.24989014,3.35156569 L2.24989014,10.0546971 C2.24989014,10.672642 2.75259997,11.1718856 3.37483521,11.1718856 L6.32781602,11.1718856 C6.55983595,11.1718856 6.74967043,11.3604112 6.74967043,11.5908313 L6.74967043,12.9873171 C6.74967043,13.2177372 6.55983595,13.4062628 6.32781602,13.4062628 Z M10.4725355,2.82439234 L13.2005273,5.30664568 L6.46843416,5.30664568 C6.00087886,5.30664568 5.62472536,5.6802056 5.62472536,6.1445371 L5.62472536,7.26172566 C5.62472536,7.72605716 6.00087886,8.09961709 6.46843416,8.09961709 L13.2005273,8.09961709 L10.4725355,10.5818704 C10.1174747,10.9030621 10.1069284,11.454674 10.4444119,11.7933218 L11.2142962,12.5578977 C11.5412333,12.8825806 12.0755822,12.8860718 12.4060349,12.5613889 L17.7495239,7.29663781 C18.083492,6.96846367 18.083492,6.43430788 17.7495239,6.10613374 L12.4095503,0.848365066 C12.0790977,0.523682139 11.5482642,0.523682139 11.2178116,0.85185628 L10.4479273,1.6164322 C10.1069284,1.95158877 10.1209902,2.50320063 10.4725355,2.82439234 Z" id="Shape"></path>
        </g>
    </g>
</svg>