<?xml version="1.0" encoding="UTF-8"?>
<svg width="24px" height="24px" viewBox="0 0 24 24" version="1.1" xmlns="http://www.w3.org/2000/svg" xmlns:xlink="http://www.w3.org/1999/xlink">
    <!-- Generator: Sketch 61.2 (89653) - https://sketch.com -->
    <title>2 - CHARTE / Icons / default / Access Blog</title>
    <desc>Created with Sketch.</desc>
    <g id="2---CHARTE-/-Icons-/-default-/-Access-Blog" stroke="none" stroke-width="1" fill="none" fill-rule="evenodd">
        <g id="Blog" transform="translate(3.000000, 5.000000)" fill="#402955">
            <path d="M16.944669,0.0016260343 C15.2321393,0.0947456423 11.8283303,0.433689039 9.72704379,1.6661016 C9.58204127,1.75113687 9.49985235,1.90234395 9.49985235,2.06043769 L9.49985235,12.9554318 C9.49985235,13.3012619 9.8945467,13.5198385 10.227365,13.3593494 C12.3892775,12.3167691 15.5158942,12.0323201 17.0618586,11.9544709 C17.5896802,11.9278225 18,11.5224079 18,11.0364493 L18,0.920845316 C18.0003124,0.390572564 17.520304,-0.0295136417 16.944669,0.0016260343 Z M8.27295606,1.6661016 C6.1719821,0.433689039 2.76817304,0.0950450623 1.05564332,0.0016260343 C0.480008329,-0.0295136417 0,0.390572564 0,0.920845316 L0,11.0367487 C0,11.5230067 0.41031962,11.9284214 0.938141279,11.9547703 C2.48473062,12.0326195 5.6129099,12.3173679 7.77482241,13.360547 C8.10670317,13.5207367 8.5001475,13.3024596 8.5001475,12.9575278 L8.5001475,2.05504813 C8.5001475,1.89665497 8.41827108,1.75143629 8.27295606,1.6661016 Z" id="Shape"></path>
        </g>
    </g>
</svg>