<?xml version="1.0" encoding="UTF-8"?>
<svg width="24px" height="24px" viewBox="0 0 24 24" version="1.1" xmlns="http://www.w3.org/2000/svg" xmlns:xlink="http://www.w3.org/1999/xlink">
    <!-- Generator: Sketch 61.2 (89653) - https://sketch.com -->
    <title>2 - CHARTE / Icons / default / activé</title>
    <desc>Created with Sketch.</desc>
    <g id="2---CHARTE-/-Icons-/-default-/-activé" stroke="none" stroke-width="1" fill="none" fill-rule="evenodd">
        <g id="circle-regular" transform="translate(4.000000, 4.000000)" fill="#402955">
            <path d="M8,0 C12.4193548,0 16,3.58064516 16,8 C16,12.4193548 12.4193548,16 8,16 C3.58064516,16 0,12.4193548 0,8 C0,3.58064516 3.58064516,0 8,0 Z M8,1.5483871 C4.43548387,1.5483871 1.5483871,4.43548387 1.5483871,8 C1.5483871,11.5645161 4.43548387,14.4516129 8,14.4516129 C11.5645161,14.4516129 14.4516129,11.5645161 14.4516129,8 C14.4516129,4.43548387 11.5645161,1.5483871 8,1.5483871 Z M8,4.57142857 C9.89354771,4.57142857 11.4285714,6.10645229 11.4285714,8 C11.4285714,9.89354771 9.89354771,11.4285714 8,11.4285714 C6.10645229,11.4285714 4.57142857,9.89354771 4.57142857,8 C4.57142857,6.10645229 6.10645229,4.57142857 8,4.57142857 Z" id="Combined-Shape"></path>
        </g>
    </g>
</svg>