<?xml version="1.0" encoding="UTF-8"?>
<svg width="24px" height="24px" viewBox="0 0 24 24" version="1.1" xmlns="http://www.w3.org/2000/svg" xmlns:xlink="http://www.w3.org/1999/xlink">
    <!-- Generator: Sketch 61.2 (89653) - https://sketch.com -->
    <title>2 - CHARTE / Icons / default / address-card</title>
    <desc>Created with Sketch.</desc>
    <g id="2---CHARTE-/-Icons-/-default-/-address-card" stroke="none" stroke-width="1" fill="none" fill-rule="evenodd">
        <g id="address-card" transform="translate(3.000000, 5.000000)" fill="#402955">
            <path d="M16.5,0 L1.5,0 C0.671875,0 0,0.706777597 0,1.57792208 L0,13.1493506 C0,14.0204951 0.671875,14.7272727 1.5,14.7272727 L16.5,14.7272727 C17.328125,14.7272727 18,14.0204951 18,13.1493506 L18,1.57792208 C18,0.706777597 17.328125,0 16.5,0 Z M5.5,3.15584416 C6.603125,3.15584416 7.5,4.09931006 7.5,5.25974026 C7.5,6.42017045 6.603125,7.36363636 5.5,7.36363636 C4.396875,7.36363636 3.5,6.42017045 3.5,5.25974026 C3.5,4.09931006 4.396875,3.15584416 5.5,3.15584416 Z M9,10.9402597 C9,11.2887175 8.6875,11.5714286 8.3,11.5714286 L2.7,11.5714286 C2.3125,11.5714286 2,11.2887175 2,10.9402597 L2,10.3090909 C2,9.26371753 2.940625,8.41558442 4.1,8.41558442 L4.25625,8.41558442 C4.640625,8.58323864 5.059375,8.67857143 5.5,8.67857143 C5.940625,8.67857143 6.3625,8.58323864 6.74375,8.41558442 L6.9,8.41558442 C8.059375,8.41558442 9,9.26371753 9,10.3090909 L9,10.9402597 Z M16,9.20454545 C16,9.34918831 15.8875,9.46753247 15.75,9.46753247 L11.25,9.46753247 C11.1125,9.46753247 11,9.34918831 11,9.20454545 L11,8.67857143 C11,8.53392857 11.1125,8.41558442 11.25,8.41558442 L15.75,8.41558442 C15.8875,8.41558442 16,8.53392857 16,8.67857143 L16,9.20454545 Z M16,7.10064935 C16,7.24529221 15.8875,7.36363636 15.75,7.36363636 L11.25,7.36363636 C11.1125,7.36363636 11,7.24529221 11,7.10064935 L11,6.57467532 C11,6.43003247 11.1125,6.31168831 11.25,6.31168831 L15.75,6.31168831 C15.8875,6.31168831 16,6.43003247 16,6.57467532 L16,7.10064935 Z M16,4.99675325 C16,5.1413961 15.8875,5.25974026 15.75,5.25974026 L11.25,5.25974026 C11.1125,5.25974026 11,5.1413961 11,4.99675325 L11,4.47077922 C11,4.32613636 11.1125,4.20779221 11.25,4.20779221 L15.75,4.20779221 C15.8875,4.20779221 16,4.32613636 16,4.47077922 L16,4.99675325 Z" id="Shape"></path>
        </g>
    </g>
</svg>