<?xml version="1.0" encoding="UTF-8"?>
<svg width="24px" height="24px" viewBox="0 0 24 24" version="1.1" xmlns="http://www.w3.org/2000/svg" xmlns:xlink="http://www.w3.org/1999/xlink">
    <!-- Generator: Sketch 61.2 (89653) - https://sketch.com -->
    <title>2 - CHARTE / Icons / default / alarm-clock</title>
    <desc>Created with Sketch.</desc>
    <g id="2---CHARTE-/-Icons-/-default-/-alarm-clock" stroke="none" stroke-width="1" fill="none" fill-rule="evenodd">
        <g id="alarm-clock" transform="translate(4.000000, 4.000000)" fill="#402955">
            <path d="M3,0 C1.34314575,0 0,1.34307339 0,2.99983839 C0.00231054165,3.56859091 0.168293465,4.12465799 0.478125,4.60162709 L5.0375,0.802456769 C4.48433612,0.286819677 3.75624105,6.39386222e-05 3,0 Z M13,0 C12.2440775,0.000145664128 11.5162776,0.286649791 10.963125,0.801831803 L15.5221875,4.60068965 C15.8316719,4.12392483 15.9975324,3.56822985 16,2.99983839 C16,1.34307339 14.6568542,0 13,0 L13,0 Z M7.99999984,1.99989226 C4.134375,1.99989226 0.999999843,5.13378593 0.999999843,8.99951517 C0.999679071,10.5101905 1.49097652,11.9799452 2.3996875,13.1867896 L1.1465625,14.4395346 C1.05276962,14.533301 0.999999843,14.6604884 0.999999843,14.7931093 C0.999999843,14.9257302 1.05276962,15.0529176 1.1465625,15.146684 L1.8534375,15.8535209 C1.94720897,15.9473087 2.07440323,16 2.20703125,16 C2.33965927,16 2.46685353,15.9473087 2.560625,15.8535209 L3.8125,14.5998385 C6.29219071,16.4662136 9.70780929,16.4662136 12.1875,14.5998385 L13.440625,15.8525835 C13.6358606,16.0476806 13.9522644,16.0476806 14.1475,15.8525835 L14.8546875,15.1457465 C14.9484804,15.0519801 15.0011745,14.9247927 15.0011745,14.7921718 C15.0011745,14.659551 14.9484804,14.5323636 14.8546875,14.4385971 L13.6015625,13.1867896 C14.5098476,11.9797988 15.0007039,10.5100512 14.9999998,8.99951517 C14.9999998,5.13378593 11.866875,1.99989226 7.99999984,1.99989226 Z M10.8125,11.109089 L10.1875,11.8902969 C10.1046651,11.9938557 9.98407997,12.0602661 9.85227509,12.0749168 C9.7204702,12.0895675 9.58824375,12.0512583 9.4846875,11.9684177 L7.46875,10.3553796 C7.17241441,10.1181341 6.99995246,9.7590876 6.99999999,9.3794947 L6.99999999,5.49970371 C6.99999999,5.22357621 7.22385763,4.99973065 7.49999999,4.99973065 L8.49999999,4.99973065 C8.77614237,4.99973065 8.99999999,5.22357621 8.99999999,5.49970371 L8.99999999,9.01888912 L10.734375,10.4063144 C10.8379394,10.4891448 10.9043533,10.6097234 10.9190048,10.7415212 C10.9336563,10.873319 10.895345,11.0055383 10.8125,11.109089 Z" id="Shape"></path>
        </g>
    </g>
</svg>