<?xml version="1.0" encoding="UTF-8"?>
<svg width="24px" height="24px" viewBox="0 0 24 24" version="1.1" xmlns="http://www.w3.org/2000/svg" xmlns:xlink="http://www.w3.org/1999/xlink">
    <!-- Generator: Sketch 61.2 (89653) - https://sketch.com -->
    <title>2 - CHARTE / Icons / default / Audio</title>
    <desc>Created with Sketch.</desc>
    <g id="2---CHARTE-/-Icons-/-default-/-Audio" stroke="none" stroke-width="1" fill="none" fill-rule="evenodd">
        <path d="M12.0000261,4 C6.96950376,4 3.16069238,8.25465981 3,13.1428344 L3,17.1429007 C3,17.4585712 3.25171139,17.7142781 3.56255382,17.7142781 L4.12500326,17.7142781 C4.4357935,17.7142781 4.68750489,17.4585712 4.68750489,17.1429007 L4.68750489,13.1428344 C4.68750489,9.04749439 7.96862523,5.72144886 12.0000261,5.7207066 C16.0313748,5.72144886 19.3124951,9.04749439 19.3124951,13.1428344 L19.3124951,17.1429007 C19.3124951,17.4585712 19.5642587,17.7142781 19.8750489,17.7142781 L20.4374984,17.7142781 C20.7483408,17.7142781 21,17.4585712 21,17.1429007 L21,13.1428344 C20.8393598,8.25465981 17.0305484,4 12.0000261,4 M15.9375375,13.1428344 L15.3750359,13.1428344 C14.7538207,13.1428344 14.2500326,13.6553616 14.2500326,14.2878691 L14.2500326,18.8550183 C14.2500326,19.4871547 14.7538207,20 15.3750359,20 L15.9375375,20 C17.180281,20 18.187544,18.9746275 18.187544,17.7100367 L18.187544,15.4329038 C18.187544,14.168207 17.180281,13.1428344 15.9375375,13.1428344 M8.62501631,13.1428344 L8.06251468,13.1428344 C6.81977123,13.1428344 5.81250815,14.1678358 5.81250815,15.4329038 L5.81250815,17.7100367 C5.81250815,18.9746275 6.81977123,20 8.06251468,20 L8.62501631,20 C9.24623146,20 9.75001957,19.4871547 9.75001957,18.8550183 L9.75001957,14.2878691 C9.75001957,13.6553616 9.24623146,13.1428344 8.62501631,13.1428344" id="Fill-49" fill="#402955"></path>
    </g>
</svg>