<?xml version="1.0" encoding="UTF-8"?>
<svg width="24px" height="24px" viewBox="0 0 24 24" version="1.1" xmlns="http://www.w3.org/2000/svg" xmlns:xlink="http://www.w3.org/1999/xlink">
    <!-- Generator: Sketch 61.2 (89653) - https://sketch.com -->
    <title>2 - CHARTE / Icons / default / award</title>
    <desc>Created with Sketch.</desc>
    <g id="2---CHARTE-/-Icons-/-default-/-award" stroke="none" stroke-width="1" fill="none" fill-rule="evenodd">
        <g id="award" transform="translate(5.500000, 4.000000)" fill="#402955">
            <path d="M3.28794972,11.3322138 C2.99376004,11.0606567 3.14711783,11.1372177 2.4375418,10.9619087 C2.11559199,10.8822228 1.83257407,10.7291008 1.5766392,10.545667 L0.0406914649,14.0218478 C-0.107926798,14.3584036 0.169674513,14.7240213 0.563055882,14.7102716 L2.34681357,14.6474603 L3.57367594,15.8436865 C3.84450649,16.1074313 4.3198141,16.0252454 4.46843236,15.6886896 L6.23052361,11.700644 C5.86354822,11.8893902 5.45628678,12.000013 5.03514528,12.000013 C4.37499582,12.000013 3.75479387,11.7628303 3.28794972,11.3322138 Z M12.9593085,14.0218478 L11.4233608,10.545667 C11.1674259,10.7294133 10.884408,10.8822228 10.5624582,10.9619087 C9.84915825,11.1381552 10.0055629,11.0612817 9.71205028,11.3322138 C9.24520613,11.7628303 8.62466564,12.000013 7.96451618,12.000013 C7.54337468,12.000013 7.13611325,11.8890777 6.76913786,11.700644 L8.5312291,15.6886896 C8.67984736,16.0252454 9.15549351,16.1074313 9.42598552,15.8436865 L10.6531864,14.6474603 L12.4369441,14.7102716 C12.8303255,14.7240213 13.1079268,14.3580911 12.9593085,14.0218478 L12.9593085,14.0218478 Z M8.9036211,10.6250404 C9.42090744,10.1391126 9.48015163,10.1809868 10.2168107,9.99567795 C10.6870402,9.87724281 11.0546927,9.53193718 11.1806289,9.09007098 C11.4338555,8.20258865 11.3681791,8.30977402 12.0591355,7.66041195 C12.4034288,7.33698089 12.5378285,6.86542778 12.4118923,6.42356157 C12.1590043,5.53670423 12.1586657,5.66045177 12.4118923,4.77265694 C12.5378285,4.33079074 12.4034288,3.85923763 12.0591355,3.53580657 C11.3681791,2.8864445 11.4338555,2.99331737 11.1806289,2.10614754 C11.0546927,1.66428134 10.6870402,1.31897571 10.2168107,1.20054057 C9.27296626,0.962732804 9.38671509,1.02491907 8.69508158,0.375244501 C8.35078825,0.051813441 7.84873612,-0.0747465391 7.37850659,0.0436886027 C6.43500067,0.281183874 6.56669202,0.281496368 5.62149341,0.0436886027 C5.15126388,-0.0747465391 4.64921175,0.0515009472 4.30491842,0.375244501 C3.61396199,1.02460657 3.72771082,0.962732804 2.78352783,1.20054057 C2.31329829,1.31897571 1.94564582,1.66428134 1.81970962,2.10614754 C1.56682159,2.99331737 1.63215946,2.8864445 0.941203032,3.53580657 C0.5969097,3.85923763 0.462171503,4.33079074 0.588446245,4.77265694 C0.841334268,5.6588893 0.841672806,5.53514176 0.588446245,6.42324908 C0.462510041,6.86511528 0.5969097,7.33666839 0.941203032,7.66041195 C1.63215946,8.30977402 1.56648306,8.20258865 1.81970962,9.09007098 C1.94564582,9.53193718 2.31329829,9.87724281 2.78352783,9.99567795 C3.54117628,10.1862992 3.59771216,10.1562998 4.0963789,10.6250404 C4.54426492,11.0459695 5.24199211,11.1212805 5.78026782,10.8069118 C6.21966786,10.5494186 6.78067068,10.5494186 7.22007072,10.8069118 C7.75800789,11.1212805 8.45573508,11.0459695 8.9036211,10.6250404 Z M3.30623078,5.49889248 C3.30623078,3.84173798 4.73621607,2.49832723 6.5,2.49832723 C8.26378393,2.49832723 9.69376922,3.84173798 9.69376922,5.49889248 C9.69376922,7.15604699 8.26378393,8.49945774 6.5,8.49945774 C4.73621607,8.49945774 3.30623078,7.15604699 3.30623078,5.49889248 L3.30623078,5.49889248 Z" id="Shape"></path>
        </g>
    </g>
</svg>