<?xml version="1.0" encoding="UTF-8"?>
<svg width="24px" height="24px" viewBox="0 0 24 24" version="1.1" xmlns="http://www.w3.org/2000/svg" xmlns:xlink="http://www.w3.org/1999/xlink">
    <!-- Generator: Sketch 61.2 (89653) - https://sketch.com -->
    <title>2 - CHARTE / Icons / default / bibliothèque</title>
    <desc>Created with Sketch.</desc>
    <g id="2---CHARTE-/-Icons-/-default-/-bibliothèque" stroke="none" stroke-width="1" fill="none" fill-rule="evenodd">
        <g id="th-solid" transform="translate(4.000000, 5.000000)" fill="#402955">
            <path d="M4.66665625,0.75 L4.66665625,3.25 C4.66665625,3.66421875 4.330875,4 3.91665625,4 L0.75,4 C0.33578125,4 0,3.66421875 0,3.25 L0,0.75 C0,0.33578125 0.33578125,0 0.75,0 L3.91665625,0 C4.330875,0 4.66665625,0.33578125 4.66665625,0.75 Z M10.3333438,8.25 L10.3333438,5.75 C10.3333438,5.33578125 9.9975625,5 9.58334375,5 L6.41665625,5 C6.0024375,5 5.66665625,5.33578125 5.66665625,5.75 L5.66665625,8.25 C5.66665625,8.66421875 6.0024375,9 6.41665625,9 L9.5833125,9 C9.9975625,9 10.3333438,8.66421875 10.3333438,8.25 L10.3333438,8.25 Z M11.3333437,0.75 L11.3333437,3.25 C11.3333437,3.66421875 11.669125,4 12.0833438,4 L15.25,4 C15.6642187,4 16,3.66421875 16,3.25 L16,0.75 C16,0.33578125 15.6642187,0 15.25,0 L12.0833437,0 C11.669125,0 11.3333437,0.33578125 11.3333437,0.75 L11.3333437,0.75 Z M10.3333438,3.25 L10.3333438,0.75 C10.3333438,0.33578125 9.9975625,0 9.58334375,0 L6.41665625,0 C6.0024375,0 5.66665625,0.33578125 5.66665625,0.75 L5.66665625,3.25 C5.66665625,3.66421875 6.0024375,4 6.41665625,4 L9.5833125,4 C9.9975625,4 10.3333438,3.66421875 10.3333438,3.25 L10.3333438,3.25 Z M3.91665625,5 L0.75,5 C0.33578125,5 0,5.33578125 0,5.75 L0,8.25 C0,8.66421875 0.33578125,9 0.75,9 L3.91665625,9 C4.330875,9 4.66665625,8.66421875 4.66665625,8.25 L4.66665625,5.75 C4.66665625,5.33578125 4.330875,5 3.91665625,5 L3.91665625,5 Z M0,10.75 L0,13.25 C0,13.6642188 0.33578125,14 0.75,14 L3.91665625,14 C4.330875,14 4.66665625,13.6642188 4.66665625,13.25 L4.66665625,10.75 C4.66665625,10.3357813 4.330875,10 3.91665625,10 L0.75,10 C0.33578125,10 0,10.3357813 0,10.75 Z M12.0833437,9 L15.25,9 C15.6642187,9 16,8.66421875 16,8.25 L16,5.75 C16,5.33578125 15.6642187,5 15.25,5 L12.0833437,5 C11.669125,5 11.3333437,5.33578125 11.3333437,5.75 L11.3333437,8.25 C11.3333437,8.66421875 11.669125,9 12.0833437,9 Z M12.0833437,14 L15.25,14 C15.6642187,14 16,13.6642188 16,13.25 L16,10.75 C16,10.3357813 15.6642187,10 15.25,10 L12.0833437,10 C11.669125,10 11.3333437,10.3357813 11.3333437,10.75 L11.3333437,13.25 C11.3333437,13.6642188 11.669125,14 12.0833437,14 Z M5.66665625,10.75 L5.66665625,13.25 C5.66665625,13.6642188 6.0024375,14 6.41665625,14 L9.5833125,14 C9.99753125,14 10.3333125,13.6642188 10.3333125,13.25 L10.3333125,10.75 C10.3333125,10.3357813 9.99753125,10 9.5833125,10 L6.41665625,10 C6.0024375,10 5.66665625,10.3357813 5.66665625,10.75 Z" id="形状"></path>
        </g>
    </g>
</svg>