<?xml version="1.0" encoding="UTF-8"?>
<svg width="24px" height="24px" viewBox="0 0 24 24" version="1.1" xmlns="http://www.w3.org/2000/svg" xmlns:xlink="http://www.w3.org/1999/xlink">
    <!-- Generator: Sketch 61.2 (89653) - https://sketch.com -->
    <title>2 - CHARTE / Icons / default / bicycle</title>
    <desc>Created with Sketch.</desc>
    <g id="2---CHARTE-/-Icons-/-default-/-bicycle" stroke="none" stroke-width="1" fill="none" fill-rule="evenodd">
        <g id="bicycle" transform="translate(2.000000, 6.000000)" fill="#402955">
            <path d="M16.0159188,4.00003125 C15.5042646,3.99803125 15.0149853,4.092375 14.5647996,4.2655 L12.1373093,0.35446875 C12.0004949,0.134051722 11.759487,0 11.5000691,0 L9.50006905,0 C9.22391462,0 9.00006905,0.22384375 9.00006905,0.5 L9.00006905,1 C9.00006905,1.27615625 9.22391462,1.5 9.50006905,1.5 L11.0828447,1.5 L11.5483429,2.25 L8.00010699,2.25 L8.00010699,1.75 C8.00010699,1.47384375 7.77626413,1.25 7.50010898,1.25 L4.76702612,1.25 C4.34699654,1.25 3.99274795,1.59371875 4.00027917,2.01365625 C4.00752914,2.42128125 4.34015282,2.75 4.75011994,2.75 L6.27280137,2.75 L5.35352378,4.235 C4.9337442,4.0840625 4.48152725,4.00115625 4.01002913,4 C1.81550662,3.9946875 0.0129513013,5.781625 6.9052685e-05,7.976125 C-0.012829846,10.1962187 1.783038,12 4.00012292,12 C5.863928,12 7.43004676,10.7252187 7.87407624,9 L9.50010102,9 C9.75983046,9 10.0010709,8.86561774 10.137786,8.64478125 L12.8240878,4.3053125 L13.2908984,5.05740625 C12.4954328,5.79015625 11.9976223,6.8411875 12.0000691,8.0085625 C12.004591,10.1595937 13.8093964,11.9789062 15.9603253,11.9997812 C18.166754,12.0211875 19.9659656,10.2559375 19.999528,8.06240625 C20.0334653,5.8455 18.2330975,4.00865625 16.0159188,4.00003125 L16.0159188,4.00003125 Z M5.83599061,6.305375 C6.13995815,6.63440625 6.35701979,7.04478125 6.44980067,7.5 L5.09649356,7.5 L5.83599061,6.305375 Z M4.00013288,10.5 C2.62162841,10.5 1.50013288,9.3785 1.50013288,8 C1.50013288,6.6215 2.62162841,5.5 4.00013288,5.5 C4.18352844,5.5 4.36218398,5.52040625 4.53446454,5.55809375 L3.11243896,7.85525 C2.80365894,8.35396875 3.16297001,9 3.75012392,9 L6.2907388,9 C5.90417784,9.88203125 5.02318135,10.5 4.00013288,10.5 Z M9.08229018,7.5 L7.96904462,7.5 C7.84529511,6.507625 7.35792205,5.6283125 6.64458114,4.9991875 L7.41789056,3.75 L11.4037184,3.75 L9.08229018,7.5 Z M15.8652944,10.4964375 C14.5829245,10.4287812 13.5512724,9.3810625 13.5019601,8.09784375 C13.4765852,7.4378125 13.7092405,6.83165625 14.1061764,6.370875 L15.4947021,8.6079375 C15.6403266,8.8425625 15.9485753,8.9146875 16.1831994,8.7690625 L16.6080102,8.50540625 C16.8426343,8.35978125 16.9147902,8.05153125 16.7691346,7.81690625 L15.3795151,5.5780625 C15.5822803,5.52614508 15.7907689,5.49992904 16.0000772,5.50003095 C17.3785696,5.50003095 18.5000652,6.62153125 18.5000652,8.00003095 C18.5000652,9.42315625 17.3046949,10.5724063 15.8652944,10.4964375 L15.8652944,10.4964375 Z" id="Shape"></path>
        </g>
    </g>
</svg>