<?xml version="1.0" encoding="UTF-8"?>
<svg width="24px" height="24px" viewBox="0 0 24 24" version="1.1" xmlns="http://www.w3.org/2000/svg" xmlns:xlink="http://www.w3.org/1999/xlink">
    <!-- Generator: Sketch 61.2 (89653) - https://sketch.com -->
    <title>2 - CHARTE / Icons / default / book-spells</title>
    <desc>Created with Sketch.</desc>
    <g id="2---CHARTE-/-Icons-/-default-/-book-spells" stroke="none" stroke-width="1" fill="none" fill-rule="evenodd">
        <g id="book-spells" transform="translate(5.000000, 4.000000)" fill="#402955">
            <path d="M14,11.2 L14,0.8 C14,0.3 13.7,0 13.2,0 L3,0 C1.3,0 0,1.3 0,3 L0,13 C0,14.7 1.3,16 3,16 L13.2,16 C13.6,16 14,15.7 14,15.2 L14,14.7 C14,14.5 13.9,14.3 13.7,14.1 C13.6,13.6 13.6,12.2 13.7,11.8 C13.9,11.7 14,11.5 14,11.2 Z M8.5,5 L9.333125,6.6665625 L11,7.5 L9.333125,8.3334375 L8.5,10 L7.666875,8.3334375 L6,7.5 L7.666875,6.6665625 L8.5,5 Z M5,3 L5.5,2 L6,3 L7,3.5 L6,4 L5.5,5 L5,4 L4,3.5 L5,3 Z M11.9,14 L3,14 C2.4,14 2,13.6 2,13 C2,12.4 2.5,12 3,12 L11.9,12 L11.9,14 Z" id="Shape"></path>
        </g>
    </g>
</svg>