<?xml version="1.0" encoding="UTF-8"?>
<svg width="24px" height="24px" viewBox="0 0 24 24" version="1.1" xmlns="http://www.w3.org/2000/svg" xmlns:xlink="http://www.w3.org/1999/xlink">
    <!-- Generator: Sketch 61.2 (89653) - https://sketch.com -->
    <title>2 - CHARTE / Icons / default / brain</title>
    <desc>Created with Sketch.</desc>
    <g id="2---CHARTE-/-Icons-/-default-/-brain" stroke="none" stroke-width="1" fill="none" fill-rule="evenodd">
        <g id="brain" transform="translate(4.000000, 5.500000)" fill="#402955">
            <path d="M5.77777778,0 C4.94722222,0 4.25833333,0.520507812 4.06111111,1.22382813 C4.03888889,1.22382813 4.02222222,1.21875 4,1.21875 C3.01944444,1.21875 2.22222222,1.94746094 2.22222222,2.84375 C2.22222222,2.965625 2.23888889,3.08496094 2.26944444,3.19921875 C1.45833333,3.50390625 0.888888889,4.23007812 0.888888889,5.078125 C0.888888889,5.39804687 0.977777778,5.69511719 1.11944444,5.96425781 C0.452777778,6.31464844 0,6.96464844 0,7.71875 C0,8.56425781 0.566666667,9.29042969 1.37222222,9.59511719 C1.34722222,9.71191406 1.33333333,9.83125 1.33333333,9.953125 C1.33333333,10.9636719 2.22777778,11.78125 3.33333333,11.78125 C3.44722222,11.78125 3.55833333,11.7685547 3.66666667,11.7507813 C3.93333333,12.4744141 4.67222222,13 5.55555556,13 C6.66111111,13 7.55555556,12.1824219 7.55555556,11.171875 L7.55555556,1.625 C7.55555556,0.728710938 6.75833333,0 5.77777778,0 Z M16,7.71875 C16,6.96464844 15.5472222,6.31464844 14.8805556,5.96425781 C15.025,5.69511719 15.1111111,5.39804687 15.1111111,5.078125 C15.1111111,4.23007812 14.5416667,3.50390625 13.7305556,3.19921875 C13.7583333,3.08496094 13.7777778,2.965625 13.7777778,2.84375 C13.7777778,1.94746094 12.9805556,1.21875 12,1.21875 C11.9777778,1.21875 11.9583333,1.22382813 11.9388889,1.22382813 C11.7416667,0.520507812 11.0527778,0 10.2222222,0 C9.24166667,0 8.44444444,0.726171875 8.44444444,1.625 L8.44444444,11.171875 C8.44444444,12.1824219 9.33888889,13 10.4444444,13 C11.3277778,13 12.0666667,12.4744141 12.3333333,11.7507813 C12.4416667,11.7685547 12.5527778,11.78125 12.6666667,11.78125 C13.7722222,11.78125 14.6666667,10.9636719 14.6666667,9.953125 C14.6666667,9.83125 14.6527778,9.71191406 14.6277778,9.59511719 C15.4333333,9.29042969 16,8.56425781 16,7.71875 Z" id="Shape"></path>
        </g>
    </g>
</svg>