<?xml version="1.0" encoding="UTF-8"?>
<svg width="24px" height="24px" viewBox="0 0 24 24" version="1.1" xmlns="http://www.w3.org/2000/svg" xmlns:xlink="http://www.w3.org/1999/xlink">
    <!-- Generator: Sketch 61.2 (89653) - https://sketch.com -->
    <title>2 - CHARTE / Icons / default / briefcase</title>
    <desc>Created with Sketch.</desc>
    <g id="2---CHARTE-/-Icons-/-default-/-briefcase" stroke="none" stroke-width="1" fill="none" fill-rule="evenodd">
        <g id="briefcase" transform="translate(4.000000, 5.500000)" fill="#402955">
            <path d="M10,8.82142857 C10,9.07794643 9.77625,9.28571429 9.5,9.28571429 L6.5,9.28571429 C6.22375,9.28571429 6,9.07794643 6,8.82142857 L6,7.42857143 L0,7.42857143 L0,11.6071429 C0,12.35 0.7,13 1.5,13 L14.5,13 C15.3,13 16,12.35 16,11.6071429 L16,7.42857143 L10,7.42857143 L10,8.82142857 Z M14.5,2.78571429 L12,2.78571429 L12,1.39285714 C12,0.65 11.3,0 10.5,0 L5.5,0 C4.7,0 4,0.65 4,1.39285714 L4,2.78571429 L1.5,2.78571429 C0.7,2.78571429 0,3.43571429 0,4.17857143 L0,6.5 L16,6.5 L16,4.17857143 C16,3.43571429 15.3,2.78571429 14.5,2.78571429 Z M10,2.78571429 L6,2.78571429 L6,1.85714286 L10,1.85714286 L10,2.78571429 Z" id="Shape"></path>
        </g>
    </g>
</svg>