<?xml version="1.0" encoding="UTF-8"?>
<svg width="24px" height="24px" viewBox="0 0 24 24" version="1.1" xmlns="http://www.w3.org/2000/svg" xmlns:xlink="http://www.w3.org/1999/xlink">
    <!-- Generator: Sketch 61.2 (89653) - https://sketch.com -->
    <title>2 - CHARTE / Icons / default / bullhorn</title>
    <desc>Created with Sketch.</desc>
    <g id="2---CHARTE-/-Icons-/-default-/-bullhorn" stroke="none" stroke-width="1" fill="none" fill-rule="evenodd">
        <g id="bullhorn" transform="translate(4.000000, 5.000000)" fill="#402955">
            <path d="M16,6.5625 C16,5.91636719 15.6402778,5.35828125 15.1111111,5.0553125 L15.1111111,0.875273437 C15.1111111,0.636015625 14.9172222,0 14.2222222,0 C14.0244444,0 13.8280556,0.065078125 13.6672222,0.191953125 L11.3052778,2.05214844 C10.1188889,2.98566406 8.62944444,3.5 7.11111111,3.5 L1.77777778,3.5 C0.795833333,3.5 0,4.28339844 0,5.25 L0,7.875 C0,8.84160156 0.795833333,9.625 1.77777778,9.625 L2.71388889,9.625 C2.67527778,9.9115625 2.65333333,10.2030469 2.65333333,10.5 C2.65333333,11.5874609 2.91055556,12.6150391 3.36333333,13.5335156 C3.5075,13.8258203 3.82222222,14 4.15222222,14 L6.21555556,14 C6.93916667,14 7.37361111,13.1840625 6.935,12.6175 C6.47944444,12.0290625 6.20861111,11.2951562 6.20861111,10.5 C6.20861111,10.1962109 6.25361111,9.90417969 6.33111111,9.625 L7.11111111,9.625 C8.62944444,9.625 10.1188889,10.1393359 11.305,11.0728516 L13.6669444,12.9330469 C13.824476,13.0571382 14.0201833,13.1248259 14.2219444,13.125 C14.9141667,13.125 15.1108333,12.5021094 15.1108333,12.25 L15.1108333,8.06996094 C15.6402778,7.76671875 16,7.20863281 16,6.5625 Z M13.3333333,10.4294531 L12.4152778,9.70648437 C10.9152778,8.52523437 9.03111111,7.875 7.11111111,7.875 L7.11111111,5.25 C9.03111111,5.25 10.9152778,4.59976562 12.4152778,3.41851562 L13.3333333,2.69554687 L13.3333333,10.4294531 Z" id="Shape"></path>
        </g>
    </g>
</svg>