<?xml version="1.0" encoding="UTF-8"?>
<svg width="24px" height="24px" viewBox="0 0 24 24" version="1.1" xmlns="http://www.w3.org/2000/svg" xmlns:xlink="http://www.w3.org/1999/xlink">
    <!-- Generator: Sketch 61.2 (89653) - https://sketch.com -->
    <title>2 - CHARTE / Icons / default / bullseye-arrow</title>
    <desc>Created with Sketch.</desc>
    <g id="2---CHARTE-/-Icons-/-default-/-bullseye-arrow" stroke="none" stroke-width="1" fill="none" fill-rule="evenodd">
        <g id="bullseye-arrow" transform="translate(4.000000, 4.000000)" fill="#402955">
            <path d="M9.84032258,2.92709717 L10.3748387,4.53032295 L7.45258065,7.45258098 C7.15,7.75516162 7.15,8.24483903 7.45258065,8.54741967 C7.75483871,8.84967773 8.24483871,8.85000032 8.54741935,8.54741967 L11.4696774,5.62516165 L13.0729032,6.15967777 C13.3112903,6.23903261 13.573871,6.17709713 13.7516129,5.99967777 L15.8054839,3.94580683 C16.153871,3.59741974 16.013871,3.00387136 15.546129,2.84774233 L13.7506452,2.24935524 L13.1522581,0.454193978 C12.9964516,-0.0135479512 12.4029032,-0.153547949 12.0541935,0.194839143 L10.0006452,2.2483875 C9.82312324,2.42608418 9.76107768,2.68874787 9.84032258,2.92709717 L9.84032258,2.92709717 Z M7.41548387,6.03000035 L9.19419355,4.2512907 L9.12580645,4.04548425 C8.76548387,3.94322619 8.39290323,3.87096813 8,3.87096813 C5.71967742,3.87096813 3.87096774,5.71967778 3.87096774,8.00000033 C3.87096774,10.2803229 5.71967742,12.1290325 8,12.1290325 C10.2803226,12.1290325 12.1290323,10.2803229 12.1290323,8.00000033 C12.1290323,7.60709711 12.0567742,7.23451647 11.9541935,6.87451647 L11.7487097,6.80612938 L9.97,8.58483903 C9.71580645,9.43709708 8.93387097,10.0645164 8,10.0645164 C6.8616129,10.0645164 5.93548387,9.13838741 5.93548387,8.00000033 C5.93548387,7.06612937 6.56290323,6.2841939 7.41548387,6.03000035 Z M15.6267742,5.58387133 L14.4816129,6.7290326 C14.3041935,6.90645195 14.0922581,7.03483905 13.8632258,7.11838744 C13.906129,7.40677453 13.9358065,7.69967775 13.9358065,8.00000022 C13.9358065,11.2803229 11.2812903,13.9354841 8.00032258,13.9354841 C4.72,13.9354841 2.06483871,11.280968 2.06483871,8.00000022 C2.06483871,4.71967779 4.71935484,2.06451654 8.00032258,2.06451654 C8.30419355,2.06451654 8.60032258,2.09451654 8.8916129,2.1383875 C8.97483871,1.91193589 9.09258065,1.69677461 9.27096774,1.51838751 L10.416129,0.373226237 C9.63464884,0.125688907 8.81974751,-0.000191042318 8,2.17618977e-07 C3.5816129,2.17618977e-07 0,3.58161329 0,8.00000022 C0,12.4183874 3.5816129,16.0000002 8,16.0000002 C12.4183871,16.0000002 16,12.4183874 16,8.00000022 C16,7.15774227 15.8680645,6.34645196 15.6267742,5.58387133 Z" id="Shape"></path>
        </g>
    </g>
</svg>