<?xml version="1.0" encoding="UTF-8"?>
<svg width="24px" height="24px" viewBox="0 0 24 24" version="1.1" xmlns="http://www.w3.org/2000/svg" xmlns:xlink="http://www.w3.org/1999/xlink">
    <!-- Generator: Sketch 61.2 (89653) - https://sketch.com -->
    <title>2 - CHARTE / Icons / default / car-side</title>
    <desc>Created with Sketch.</desc>
    <g id="2---CHARTE-/-Icons-/-default-/-car-side" stroke="none" stroke-width="1" fill="none" fill-rule="evenodd">
        <g id="car-side" transform="translate(2.000000, 5.000000)" fill="#402955">
            <path d="M17,5 L16.5,5 L13.100625,0.750625 C12.7209807,0.27624279 12.1463422,0 11.53875,0 L4.8540625,0 C4.03625,0 3.3009375,0.4978125 2.9971875,1.2571875 L1.5,5.070625 C0.63875,5.29375 0,6.0690625 0,7 L0,10.5 C0,10.77625 0.22375,11 0.5,11 L2,11 C2,12.656875 3.343125,14 5,14 C6.656875,14 8,12.656875 8,11 L12,11 C12,12.656875 13.343125,14 15,14 C16.656875,14 18,12.656875 18,11 L19.5,11 C19.77625,11 20,10.77625 20,10.5 L20,8 C20,6.343125 18.656875,5 17,5 Z M5,12.5 C4.1728125,12.5 3.5,11.8271875 3.5,11 C3.5,10.1728125 4.1728125,9.5 5,9.5 C5.8271875,9.5 6.5,10.1728125 6.5,11 C6.5,11.8271875 5.8271875,12.5 5,12.5 Z M7.25,5 L3.6540625,5 L4.8540625,2 L7.25,2 L7.25,5 Z M8.75,5 L8.75,2 L11.53875,2 L13.93875,5 L8.75,5 Z M15,12.5 C14.1728125,12.5 13.5,11.8271875 13.5,11 C13.5,10.1728125 14.1728125,9.5 15,9.5 C15.8271875,9.5 16.5,10.1728125 16.5,11 C16.5,11.8271875 15.8271875,12.5 15,12.5 Z" id="Shape"></path>
        </g>
    </g>
</svg>