<?xml version="1.0" encoding="UTF-8"?>
<svg width="24px" height="24px" viewBox="0 0 24 24" version="1.1" xmlns="http://www.w3.org/2000/svg" xmlns:xlink="http://www.w3.org/1999/xlink">
    <!-- Generator: Sketch 61.2 (89653) - https://sketch.com -->
    <title>2 - CHARTE / Icons / default / chalkboard-teacher</title>
    <desc>Created with Sketch.</desc>
    <g id="2---CHARTE-/-Icons-/-default-/-chalkboard-teacher" stroke="none" stroke-width="1" fill="none" fill-rule="evenodd">
        <g id="chalkboard-teacher" transform="translate(4.000000, 6.000000)" fill="#402955">
            <path d="M5.20005426,8.48529412 C5.14030456,8.48529412 5.08055486,8.49349724 5.02355514,8.51084099 C4.69955677,8.60951287 4.35880848,8.67279412 4.00006029,8.67279412 C3.64131209,8.67279412 3.3005638,8.60951287 2.97631543,8.51084099 C2.91931571,8.49349724 2.85981601,8.48529412 2.80006631,8.48529412 C1.24857411,8.48529412 -0.00816957836,9.66841912 3.99934273e-05,11.1248254 C0.00358036261,11.7402941 0.543327651,12.2352941 1.20007435,12.2352941 L6.80004622,12.2352941 C7.45679292,12.2352941 7.99654021,11.7402941 8.00008058,11.1248254 C8.00829015,9.66841912 6.75154646,8.48529412 5.20005426,8.48529412 Z M4.00006029,7.73529412 C5.32555363,7.73529412 6.40004823,6.72795037 6.40004823,5.48529412 C6.40004823,4.24263787 5.32555363,3.23529412 4.00006029,3.23529412 C2.67456694,3.23529412 1.60007234,4.24263787 1.60007234,5.48529412 C1.60007234,6.72795037 2.67456694,7.73529412 4.00006029,7.73529412 Z M14.800006,0.235294118 L5.20005426,0.235294118 C4.53830758,0.235294118 4.00006029,0.756778493 4.00006029,1.39755974 L4.00006029,2.48529412 C4.58555734,2.48529412 5.12755462,2.64420037 5.60005225,2.90248162 L5.60005225,1.73529412 L14.400008,1.73529412 L14.400008,8.48529412 L12.8000161,8.48529412 L12.8000161,6.98529412 L9.60003215,6.98529412 L9.60003215,8.48529412 L7.69404173,8.48529412 C8.17153933,8.87646599 8.52203757,9.39302849 8.68628674,9.98529412 L14.800006,9.98529412 C15.4617527,9.98529412 16,9.46380974 16,8.82302849 L16,1.39755974 C16,0.756778493 15.4617527,0.235294118 14.800006,0.235294118 Z" id="Shape"></path>
        </g>
    </g>
</svg>