<?xml version="1.0" encoding="UTF-8"?>
<svg width="24px" height="24px" viewBox="0 0 24 24" version="1.1" xmlns="http://www.w3.org/2000/svg" xmlns:xlink="http://www.w3.org/1999/xlink">
    <!-- Generator: Sketch 61.2 (89653) - https://sketch.com -->
    <title>2 - CHARTE / Icons / default / chart-pie</title>
    <desc>Created with Sketch.</desc>
    <g id="2---CHARTE-/-Icons-/-default-/-chart-pie" stroke="none" stroke-width="1" fill="none" fill-rule="evenodd">
        <g id="chart-pie" transform="translate(4.000000, 4.000000)" fill="#402955">
            <path d="M15.5232492,8.99997813 L8.5441542,8.99997813 L13.1920803,13.9384695 C13.3697268,14.1272215 13.6620788,14.1425342 13.8447252,13.9597197 C14.9829568,12.8203323 15.7658955,11.284378 15.9956006,9.55779671 C16.0350122,9.26216848 15.8041306,8.99997813 15.5232492,8.99997813 L15.5232492,8.99997813 Z M15.0576625,6.97495605 C14.8153103,3.24179035 12.0076724,0.258632823 8.49415436,0.00113001567 C8.22591994,-0.018557699 8.00003832,0.221757421 8.00003832,0.507385535 L8.00003832,7.49996177 L14.5814876,7.49996177 C14.8503102,7.49996177 15.0761918,7.25995916 15.0576625,6.97495605 Z M6.5882782,8.99997813 L6.5882782,1.58458478 C6.5882782,1.28614403 6.34151429,1.04082885 6.06357402,1.08270431 C2.55858539,1.60896005 -0.120523562,4.86243302 0.00418191522,8.76153803 C0.132416793,12.7659567 3.37740626,16.0497425 7.14798226,15.9994294 C8.63033039,15.9797417 10.0000318,15.4722362 11.1262046,14.6234769 C11.3585568,14.448475 11.3738509,14.0850336 11.172381,13.8709687 L6.5882782,8.99997813 Z" id="Shape"></path>
        </g>
    </g>
</svg>