<?xml version="1.0" encoding="UTF-8"?>
<svg width="24px" height="24px" viewBox="0 0 24 24" version="1.1" xmlns="http://www.w3.org/2000/svg" xmlns:xlink="http://www.w3.org/1999/xlink">
    <!-- Generator: Sketch 61.2 (89653) - https://sketch.com -->
    <title>2 - CHARTE / Icons / default / chart-bar</title>
    <desc>Created with Sketch.</desc>
    <g id="2---CHARTE-/-Icons-/-default-/-chart-bar" stroke="none" stroke-width="1" fill="none" fill-rule="evenodd">
        <g id="chart-bar" transform="translate(4.000000, 6.000000)" fill="#402955">
            <path d="M10.4,8 L11.6,8 C11.8,8 12,7.8 12,7.6 L12,3.4 C12,3.2 11.8,3 11.6,3 L10.4,3 C10.2,3 10,3.2 10,3.4 L10,7.6 C10,7.8 10.2,8 10.4,8 L10.4,8 Z M13.4,8 L14.6,8 C14.8,8 15,7.8 15,7.6 L15,0.4 C15,0.2 14.8,0 14.6,0 L13.4,0 C13.2,0 13,0.2 13,0.4 L13,7.6 C13,7.8 13.2,8 13.4,8 Z M4.4,8 L5.6,8 C5.8,8 6,7.8 6,7.6 L6,5.4 C6,5.2 5.8,5 5.6,5 L4.4,5 C4.2,5 4,5.2 4,5.4 L4,7.6 C4,7.8 4.2,8 4.4,8 Z M7.4,8 L8.6,8 C8.8,8 9,7.8 9,7.6 L9,1.4 C9,1.2 8.8,1 8.6,1 L7.4,1 C7.2,1 7,1.2 7,1.4 L7,7.6 C7,7.8 7.2,8 7.4,8 L7.4,8 Z M15.5,10 L2,10 L2,0.5 C2,0.22375 1.77625,0 1.5,0 L0.5,0 C0.22375,0 0,0.22375 0,0.5 L0,11 C0,11.5521875 0.4478125,12 1,12 L15.5,12 C15.77625,12 16,11.77625 16,11.5 L16,10.5 C16,10.22375 15.77625,10 15.5,10 Z" id="Shape"></path>
        </g>
    </g>
</svg>