<?xml version="1.0" encoding="UTF-8"?>
<svg width="24px" height="24px" viewBox="0 0 24 24" version="1.1" xmlns="http://www.w3.org/2000/svg" xmlns:xlink="http://www.w3.org/1999/xlink">
    <!-- Generator: Sketch 61.2 (89653) - https://sketch.com -->
    <title>2 - CHARTE / Icons / default / CheckBoxQuestion</title>
    <desc>Created with Sketch.</desc>
    <g id="2---CHARTE-/-Icons-/-default-/-CheckBoxQuestion" stroke="none" stroke-width="1" fill="none" fill-rule="evenodd">
        <g id="check-square" transform="translate(4.000000, 4.000000)">
            <g id="Group">
                <path d="M14.2857143,16 L1.71428571,16 C0.7675,16 3.55271368e-15,15.2325 3.55271368e-15,14.2857143 L3.55271368e-15,1.71428571 C3.55271368e-15,0.7675 0.7675,-1.0658141e-14 1.71428571,-1.0658141e-14 L14.2857143,-1.0658141e-14 C15.2325,-1.0658141e-14 16,0.7675 16,1.71428571 L16,14.2857143 C16,15.2325 15.2325,16 14.2857143,16 Z" id="Path" fill="#402955"></path>
                <path d="M6.9755,12.4978929 L13.5469286,5.92646429 C13.7700714,5.70332143 13.7700714,5.3415 13.5469286,5.11835714 L12.7388214,4.31025 C12.5156786,4.08710714 12.1538571,4.08707143 11.9306786,4.31025 L6.57142857,9.66946429 L4.06932143,7.16735714 C3.84617857,6.94421429 3.48435714,6.94421429 3.26117857,7.16735714 L2.45307143,7.97546429 C2.22992857,8.19860714 2.22992857,8.56042857 2.45307143,8.78357143 L6.16735714,12.4978571 C6.39053571,12.7210714 6.75232143,12.7210714 6.9755,12.4978929 L6.9755,12.4978929 Z" id="Path" fill="#FFFFFF"></path>
            </g>
        </g>
    </g>
</svg>