<?xml version="1.0" encoding="UTF-8"?>
<svg width="24px" height="24px" viewBox="0 0 24 24" version="1.1" xmlns="http://www.w3.org/2000/svg" xmlns:xlink="http://www.w3.org/1999/xlink">
    <!-- Generator: Sketch 61.2 (89653) - https://sketch.com -->
    <title>2 - CHARTE / Icons / default / city</title>
    <desc>Created with Sketch.</desc>
    <g id="2---CHARTE-/-Icons-/-default-/-city" stroke="none" stroke-width="1" fill="none" fill-rule="evenodd">
        <g id="city" transform="translate(4.000000, 5.500000)" fill="#402955">
            <path d="M15.4,4.875 L12,4.875 L12,0.609375 C12,0.272695313 11.7315,0 11.4,0 L7.8,0 C7.4685,0 7.2,0.272695313 7.2,0.609375 L7.2,2.4375 L5.6,2.4375 L5.6,0.40625 C5.6,0.181796875 5.421,0 5.2,0 L4.8,0 C4.579,0 4.4,0.181796875 4.4,0.40625 L4.4,2.4375 L2.8,2.4375 L2.8,0.40625 C2.8,0.181796875 2.621,0 2.4,0 L2,0 C1.779,0 1.6,0.181796875 1.6,0.40625 L1.6,2.4375 L0.6,2.4375 C0.2685,2.4375 0,2.71019531 0,3.046875 L0,12.1875 C0,12.6361523 0.35825,13 0.8,13 L15.2,13 C15.64175,13 16,12.6361523 16,12.1875 L16,5.484375 C16,5.14769531 15.73125,4.875 15.4,4.875 Z M3.2,10.2578125 C3.2,10.4261523 3.06575,10.5625 2.9,10.5625 L1.9,10.5625 C1.73425,10.5625 1.6,10.4261523 1.6,10.2578125 L1.6,9.2421875 C1.6,9.07384766 1.73425,8.9375 1.9,8.9375 L2.9,8.9375 C3.06575,8.9375 3.2,9.07384766 3.2,9.2421875 L3.2,10.2578125 Z M3.2,7.8203125 C3.2,7.98865234 3.06575,8.125 2.9,8.125 L1.9,8.125 C1.73425,8.125 1.6,7.98865234 1.6,7.8203125 L1.6,6.8046875 C1.6,6.63634766 1.73425,6.5 1.9,6.5 L2.9,6.5 C3.06575,6.5 3.2,6.63634766 3.2,6.8046875 L3.2,7.8203125 Z M3.2,5.3828125 C3.2,5.55115234 3.06575,5.6875 2.9,5.6875 L1.9,5.6875 C1.73425,5.6875 1.6,5.55115234 1.6,5.3828125 L1.6,4.3671875 C1.6,4.19884766 1.73425,4.0625 1.9,4.0625 L2.9,4.0625 C3.06575,4.0625 3.2,4.19884766 3.2,4.3671875 L3.2,5.3828125 Z M6.4,10.2578125 C6.4,10.4261523 6.26575,10.5625 6.1,10.5625 L5.1,10.5625 C4.93425,10.5625 4.8,10.4261523 4.8,10.2578125 L4.8,9.2421875 C4.8,9.07384766 4.93425,8.9375 5.1,8.9375 L6.1,8.9375 C6.26575,8.9375 6.4,9.07384766 6.4,9.2421875 L6.4,10.2578125 Z M6.4,7.8203125 C6.4,7.98865234 6.26575,8.125 6.1,8.125 L5.1,8.125 C4.93425,8.125 4.8,7.98865234 4.8,7.8203125 L4.8,6.8046875 C4.8,6.63634766 4.93425,6.5 5.1,6.5 L6.1,6.5 C6.26575,6.5 6.4,6.63634766 6.4,6.8046875 L6.4,7.8203125 Z M6.4,5.3828125 C6.4,5.55115234 6.26575,5.6875 6.1,5.6875 L5.1,5.6875 C4.93425,5.6875 4.8,5.55115234 4.8,5.3828125 L4.8,4.3671875 C4.8,4.19884766 4.93425,4.0625 5.1,4.0625 L6.1,4.0625 C6.26575,4.0625 6.4,4.19884766 6.4,4.3671875 L6.4,5.3828125 Z M10.4,7.8203125 C10.4,7.98865234 10.26575,8.125 10.1,8.125 L9.1,8.125 C8.93425,8.125 8.8,7.98865234 8.8,7.8203125 L8.8,6.8046875 C8.8,6.63634766 8.93425,6.5 9.1,6.5 L10.1,6.5 C10.26575,6.5 10.4,6.63634766 10.4,6.8046875 L10.4,7.8203125 Z M10.4,5.3828125 C10.4,5.55115234 10.26575,5.6875 10.1,5.6875 L9.1,5.6875 C8.93425,5.6875 8.8,5.55115234 8.8,5.3828125 L8.8,4.3671875 C8.8,4.19884766 8.93425,4.0625 9.1,4.0625 L10.1,4.0625 C10.26575,4.0625 10.4,4.19884766 10.4,4.3671875 L10.4,5.3828125 Z M10.4,2.9453125 C10.4,3.11365234 10.26575,3.25 10.1,3.25 L9.1,3.25 C8.93425,3.25 8.8,3.11365234 8.8,2.9453125 L8.8,1.9296875 C8.8,1.76134766 8.93425,1.625 9.1,1.625 L10.1,1.625 C10.26575,1.625 10.4,1.76134766 10.4,1.9296875 L10.4,2.9453125 Z M14.4,10.2578125 C14.4,10.4261523 14.26575,10.5625 14.1,10.5625 L13.1,10.5625 C12.93425,10.5625 12.8,10.4261523 12.8,10.2578125 L12.8,9.2421875 C12.8,9.07384766 12.93425,8.9375 13.1,8.9375 L14.1,8.9375 C14.26575,8.9375 14.4,9.07384766 14.4,9.2421875 L14.4,10.2578125 Z M14.4,7.8203125 C14.4,7.98865234 14.26575,8.125 14.1,8.125 L13.1,8.125 C12.93425,8.125 12.8,7.98865234 12.8,7.8203125 L12.8,6.8046875 C12.8,6.63634766 12.93425,6.5 13.1,6.5 L14.1,6.5 C14.26575,6.5 14.4,6.63634766 14.4,6.8046875 L14.4,7.8203125 Z" id="Shape"></path>
        </g>
    </g>
</svg>