<?xml version="1.0" encoding="UTF-8"?>
<svg width="24px" height="24px" viewBox="0 0 24 24" version="1.1" xmlns="http://www.w3.org/2000/svg" xmlns:xlink="http://www.w3.org/1999/xlink">
    <!-- Generator: Sketch 61.2 (89653) - https://sketch.com -->
    <title>2 - CHARTE / Icons / default / clipboard-list-check</title>
    <desc>Created with Sketch.</desc>
    <g id="2---CHARTE-/-Icons-/-default-/-clipboard-list-check" stroke="none" stroke-width="1" fill="none" fill-rule="evenodd">
        <g id="clipboard-list-check" transform="translate(6.000000, 4.000000)" fill="#402955">
            <path d="M10.5,2 L8,2 C8,0.896875 7.103125,0 6,0 C4.896875,0 4,0.896875 4,2 L1.5,2 C0.671875,2 0,2.671875 0,3.5 L0,14.5 C0,15.328125 0.671875,16 1.5,16 L10.5,16 C11.328125,16 12,15.328125 12,14.5 L12,3.5 C12,2.671875 11.328125,2 10.5,2 Z M6,1.25 C6.415625,1.25 6.75,1.584375 6.75,2 C6.75,2.415625 6.415625,2.75 6,2.75 C5.584375,2.75 5.25,2.415625 5.25,2 C5.25,1.584375 5.584375,1.25 6,1.25 Z M2.05,6.54375 L2.446875,6.15 C2.5125,6.084375 2.61875,6.084375 2.684375,6.15 L3.328125,6.8 L4.815625,5.325 C4.88125,5.259375 4.9875,5.259375 5.053125,5.325 L5.446875,5.721875 C5.5125,5.7875 5.5125,5.89375 5.446875,5.959375 L3.440625,7.946875 C3.375,8.0125 3.26875,8.0125 3.203125,7.946875 L2.05,6.78125 C1.984375,6.715625 1.984375,6.609375 2.05,6.54375 Z M3,12.25 C2.584375,12.25 2.25,11.915625 2.25,11.5 C2.25,11.084375 2.584375,10.75 3,10.75 C3.415625,10.75 3.75,11.084375 3.75,11.5 C3.75,11.915625 3.415625,12.25 3,12.25 Z M10,11.75 C10,11.8875 9.8875,12 9.75,12 L5.25,12 C5.1125,12 5,11.8875 5,11.75 L5,11.25 C5,11.1125 5.1125,11 5.25,11 L9.75,11 C9.8875,11 10,11.1125 10,11.25 L10,11.75 Z M10,7.75 C10,7.8875 9.865625,8 9.7,8 L4.815625,8 L5.825,7 L9.7,7 C9.865625,7 10,7.1125 10,7.25 L10,7.75 Z" id="Shape"></path>
        </g>
    </g>
</svg>