<?xml version="1.0" encoding="UTF-8"?>
<svg width="24px" height="24px" viewBox="0 0 24 24" version="1.1" xmlns="http://www.w3.org/2000/svg" xmlns:xlink="http://www.w3.org/1999/xlink">
    <!-- Generator: Sketch 61.2 (89653) - https://sketch.com -->
    <title>2 - CHARTE / Icons / default / cogs</title>
    <desc>Created with Sketch.</desc>
    <g id="2---CHARTE-/-Icons-/-default-/-cogs" stroke="none" stroke-width="1" fill="none" fill-rule="evenodd">
        <g id="cogs" transform="translate(4.000000, 6.000000)" fill="#402955">
            <path d="M12.8037927,4.48905072 L12.5987758,4.82533982 C12.5237696,4.94997844 12.3637563,5.00171522 12.2212446,4.95233011 C11.9262202,4.84885654 11.6561979,4.7007012 11.4186782,4.51491911 C11.3036687,4.42555557 11.2736663,4.26799354 11.3486725,4.1457066 L11.5536894,3.8094175 C11.3811751,3.62128373 11.246164,3.40257824 11.1561566,3.16505936 L10.7436225,3.16505936 C10.5936101,3.16505936 10.4635993,3.06393746 10.4385973,2.92283714 C10.3885931,2.6406365 10.3860929,2.34432582 10.4385973,2.05036681 C10.4635993,1.90926649 10.5936101,1.80579292 10.7436225,1.80579292 L11.1561566,1.80579292 C11.246164,1.56827405 11.3811751,1.34956855 11.5536894,1.16143478 L11.3486725,0.825145683 C11.2736663,0.702858737 11.3011685,0.54529671 11.4186782,0.455933173 C11.6561979,0.270151082 11.9287204,0.121995744 12.2212446,0.018522174 C12.3637563,-0.0308629388 12.5237696,0.0208738461 12.5987758,0.145512464 L12.8037927,0.481801565 C13.0663144,0.437119797 13.3338365,0.437119797 13.5963582,0.481801565 L13.8013751,0.145512464 C13.8763813,0.0208738461 14.0363945,-0.0308629388 14.1789063,0.018522174 C14.4739307,0.121995744 14.743953,0.270151082 14.9814726,0.455933173 C15.0964821,0.54529671 15.1264846,0.702858737 15.0514784,0.825145683 L14.8464615,1.16143478 C15.0189757,1.34956855 15.1539869,1.56827405 15.2439943,1.80579292 L15.6565284,1.80579292 C15.8065408,1.80579292 15.9365515,1.90691482 15.9615536,2.04801514 C16.0115577,2.33021579 16.0140579,2.62652646 15.9615536,2.92048547 C15.9365515,3.06158579 15.8065408,3.16505936 15.6565284,3.16505936 L15.2439943,3.16505936 C15.1539869,3.40257824 15.0189757,3.62128373 14.8464615,3.8094175 L15.0514784,4.1457066 C15.1264846,4.26799354 15.0989823,4.42555557 14.9814726,4.51491911 C14.743953,4.7007012 14.4714305,4.84885654 14.1789063,4.95233011 C14.0363945,5.00171522 13.8763813,4.94997844 13.8013751,4.82533982 L13.5963582,4.48905072 C13.3363367,4.53373248 13.0663144,4.53373248 12.8037927,4.48905072 L12.8037927,4.48905072 Z M12.541271,3.10626756 C13.5038505,3.80236248 14.6014412,2.76997846 13.8613801,1.86458472 C12.8988005,1.16613813 11.8012099,2.20087382 12.541271,3.10626756 L12.541271,3.10626756 Z M9.65853281,6.72549082 L10.5011024,7.12057173 C10.7536233,7.2569687 10.8636324,7.54622436 10.7636241,7.80490829 C10.5411057,8.37401292 10.1035696,8.89608411 9.69853611,9.35230849 C9.51352082,9.5616073 9.19349438,9.61334408 8.94097352,9.47694711 L8.2134134,9.0818662 C7.81338035,9.40404527 7.34834192,9.66037753 6.84079999,9.82734624 L6.84079999,10.617508 C6.84079999,10.890302 6.63328284,11.1254692 6.34825929,11.1725026 C5.73320847,11.2712729 5.08815517,11.2759762 4.45060249,11.1725026 C4.16307873,11.1254692 3.95056117,10.8926537 3.95056117,10.617508 L3.95056117,9.82734624 C3.44301924,9.65802585 2.97798081,9.40404527 2.57794776,9.0818662 L1.85038764,9.47459543 C1.60036698,9.61099241 1.27784033,9.55925563 1.09282505,9.34995682 C0.687791579,8.89373244 0.260256252,8.37166125 0.0377378663,7.80490829 C-0.0622703971,7.54857604 0.0477386927,7.25932038 0.300259558,7.12057173 L1.13282835,6.72549082 C1.03532029,6.23399137 1.03532029,5.72838188 1.13282835,5.23453075 L0.300259558,4.83709818 C0.0477386927,4.7007012 -0.0647706037,4.41144554 0.0377378663,4.15511329 C0.260256252,3.58600865 0.687791579,3.06393746 1.09282505,2.60771309 C1.27784033,2.39841428 1.59786678,2.34667749 1.85038764,2.48307447 L2.57794776,2.87815537 C2.97798081,2.5559763 3.44301924,2.29964405 3.95056117,2.13267534 L3.95056117,1.34016186 C3.95056117,1.06971957 4.15557811,0.834552371 4.44060166,0.78751893 C5.05565248,0.688748705 5.70320599,0.68404536 6.34075867,0.785167258 C6.62828243,0.832200699 6.84079999,1.06501623 6.84079999,1.34016186 L6.84079999,2.13032366 C7.34834192,2.29964405 7.81338035,2.55362463 8.2134134,2.8758037 L8.94097352,2.4807228 C9.19099418,2.34432582 9.51352082,2.3960626 9.69853611,2.60536141 C10.1035696,3.06158579 10.5286047,3.58365698 10.7511231,4.15276161 C10.8511313,4.40909387 10.7536233,4.69834953 10.5011024,4.83709818 L9.65853281,5.23217908 C9.75604086,5.72603021 9.75604086,6.2316397 9.65853281,6.72549082 Z M6.71828986,7.22169362 C8.19841216,5.41090615 6.00073057,3.34378643 4.0755715,4.73597628 C2.5954492,6.54676375 4.79313079,8.61388347 6.71828986,7.22169362 Z M12.8037927,11.5181984 L12.5987758,11.8544875 C12.5237696,11.9791262 12.3637563,12.0308629 12.2212446,11.9814778 C11.9262202,11.8780043 11.6561979,11.7298489 11.4186782,11.5440668 C11.3036687,11.4547033 11.2736663,11.2971413 11.3486725,11.1748543 L11.5536894,10.8385652 C11.3811751,10.6504315 11.246164,10.431726 11.1561566,10.1942071 L10.7436225,10.1942071 C10.5936101,10.1942071 10.4635993,10.0930852 10.4385973,9.95198486 C10.3885931,9.66978421 10.3860929,9.37347354 10.4385973,9.07951453 C10.4635993,8.93841421 10.5936101,8.83494064 10.7436225,8.83494064 L11.1561566,8.83494064 C11.246164,8.59742176 11.3811751,8.37871627 11.5536894,8.1905825 L11.3486725,7.8542934 C11.2736663,7.73200646 11.3011685,7.57444443 11.4186782,7.48508089 C11.6561979,7.2992988 11.9287204,7.15114346 12.2212446,7.04766989 C12.3637563,6.99828478 12.5237696,7.05002156 12.5987758,7.17466018 L12.8037927,7.51094928 C13.0663144,7.46626752 13.3338365,7.46626752 13.5963582,7.51094928 L13.8013751,7.17466018 C13.8763813,7.05002156 14.0363945,6.99828478 14.1789063,7.04766989 C14.4739307,7.15114346 14.743953,7.2992988 14.9814726,7.48508089 C15.0964821,7.57444443 15.1264846,7.73200646 15.0514784,7.8542934 L14.8464615,8.1905825 C15.0189757,8.37871627 15.1539869,8.59742176 15.2439943,8.83494064 L15.6565284,8.83494064 C15.8065408,8.83494064 15.9365515,8.93606254 15.9615536,9.07716286 C16.0115577,9.3593635 16.0140579,9.65567418 15.9615536,9.94963319 C15.9365515,10.0907335 15.8065408,10.1942071 15.6565284,10.1942071 L15.2439943,10.1942071 C15.1539869,10.431726 15.0189757,10.6504315 14.8464615,10.8385652 L15.0514784,11.1748543 C15.1264846,11.2971413 15.0989823,11.4547033 14.9814726,11.5440668 C14.743953,11.7298489 14.4714305,11.8780043 14.1789063,11.9814778 C14.0363945,12.0308629 13.8763813,11.9791262 13.8013751,11.8544875 L13.5963582,11.5181984 C13.3363367,11.5628802 13.0663144,11.5628802 12.8037927,11.5181984 Z M12.541271,10.1330636 C13.5038505,10.8291585 14.6014412,9.7967745 13.8613801,8.89138077 C12.8988005,8.19528585 11.8012099,9.22766987 12.541271,10.1330636 L12.541271,10.1330636 Z" id="Shape"></path>
        </g>
    </g>
</svg>