<?xml version="1.0" encoding="UTF-8"?>
<svg width="24px" height="24px" viewBox="0 0 24 24" version="1.1" xmlns="http://www.w3.org/2000/svg" xmlns:xlink="http://www.w3.org/1999/xlink">
    <!-- Generator: Sketch 61.2 (89653) - https://sketch.com -->
    <title>2 - CHARTE / Icons / default / comment-alt-smile</title>
    <desc>Created with Sketch.</desc>
    <g id="2---CHARTE-/-Icons-/-default-/-comment-alt-smile" stroke="none" stroke-width="1" fill="none" fill-rule="evenodd">
        <g id="comment-alt-smile" transform="translate(4.000000, 4.000000)" fill="#402955">
            <path d="M14,0 L2,0 C0.896875,0 0,0.896822575 0,1.9998831 L0,10.999357 C0,12.1024175 0.896875,12.9992401 2,12.9992401 L5,12.9992401 L5,15.6240867 C5,15.9303188 5.35,16.1084334 5.596875,15.927194 L9.5,12.9992401 L14,12.9992401 C15.103125,12.9992401 16,12.1024175 16,10.999357 L16,1.9998831 C16,0.896822575 15.103125,0 14,0 Z M10,4.16225669 C10.4625,4.16225669 10.8375,4.53723477 10.8375,4.99970774 C10.8375,5.4621807 10.4625,5.83715878 10,5.83715878 C9.5375,5.83715878 9.1625,5.4621807 9.1625,4.99970774 C9.1625,4.53723477 9.5375,4.16225669 10,4.16225669 Z M6,4.16225669 C6.4625,4.16225669 6.8375,4.53723477 6.8375,4.99970774 C6.8375,5.4621807 6.4625,5.83715878 6,5.83715878 C5.5375,5.83715878 5.1625,5.4621807 5.1625,4.99970774 C5.1625,4.53723477 5.5375,4.16225669 6,4.16225669 Z M11.13125,8.56512432 C10.353125,9.47757098 9.2125,9.99941548 8,9.99941548 C6.7875,9.99941548 5.646875,9.47757098 4.86875,8.56512432 C4.6875,8.35576156 4.7125,8.04015501 4.925,7.86204042 C5.134375,7.68392583 5.45,7.70579955 5.628125,7.91828713 C6.215625,8.60574694 7.08125,8.99947393 7.996875,8.99947393 C8.915625,8.99947393 9.778125,8.60574694 10.365625,7.91516231 C10.546875,7.70579955 10.8625,7.68080101 11.071875,7.8589156 C11.284375,8.04015501 11.309375,8.35576156 11.13125,8.56512432 L11.13125,8.56512432 Z" id="Shape"></path>
        </g>
    </g>
</svg>