<?xml version="1.0" encoding="UTF-8"?>
<svg width="24px" height="24px" viewBox="0 0 24 24" version="1.1" xmlns="http://www.w3.org/2000/svg" xmlns:xlink="http://www.w3.org/1999/xlink">
    <!-- Generator: Sketch 61.2 (89653) - https://sketch.com -->
    <title>2 - CHARTE / Icons / default / Correction</title>
    <desc>Created with Sketch.</desc>
    <g id="2---CHARTE-/-Icons-/-default-/-Correction" stroke="none" stroke-width="1" fill="none" fill-rule="evenodd">
        <g id="file-check-solid" transform="translate(6.000000, 4.000000)" fill="#402955">
            <path d="M12,3.81065625 L12,4 L8,4 L8,0 L8.18934375,0 C8.38825,0 8.57903125,0.07903125 8.7196875,0.21965625 L11.7803437,3.2803125 C11.9209798,3.42098009 12,3.61174452 12,3.81065625 Z M7.75,5 L12,5 L12,15.25 C12,15.6642187 11.6642187,16 11.25,16 L0.75,16 C0.33578125,16 0,15.6642187 0,15.25 L0,0.75 C0,0.33578125 0.33578125,0 0.75,0 L7,0 L7,4.25 C7,4.6625 7.3375,5 7.75,5 Z M9.7905,8.429125 L8.91021875,7.5416875 C8.764375,7.39465625 8.5269375,7.3936875 8.37990625,7.5395625 L5.06625,10.8265625 L3.629375,9.3780625 C3.48353125,9.23103125 3.2460625,9.2300625 3.09903125,9.3759375 L2.211625,10.25625 C2.06459375,10.4020937 2.063625,10.6395312 2.2095,10.7865625 L4.79078125,13.3887187 C4.936625,13.53575 5.1740625,13.5367187 5.32109375,13.3908437 L9.788375,8.9594375 C9.93540625,8.81359375 9.936375,8.57615625 9.7905,8.429125 Z" id="Shape"></path>
        </g>
    </g>
</svg>