<?xml version="1.0" encoding="UTF-8"?>
<svg width="24px" height="24px" viewBox="0 0 24 24" version="1.1" xmlns="http://www.w3.org/2000/svg" xmlns:xlink="http://www.w3.org/1999/xlink">
    <!-- Generator: Sketch 61.2 (89653) - https://sketch.com -->
    <title>2 - CHARTE / Icons / default / desktop</title>
    <desc>Created with Sketch.</desc>
    <g id="2---CHARTE-/-Icons-/-default-/-desktop" stroke="none" stroke-width="1" fill="none" fill-rule="evenodd">
        <g id="desktop" transform="translate(4.000000, 4.500000)" fill="#402955">
            <path d="M14.6666667,0 L1.33333333,0 C0.597222222,0 0,0.629882812 0,1.40625 L0,10.78125 C0,11.5576172 0.597222222,12.1875 1.33333333,12.1875 L6.66666667,12.1875 L6.22222222,13.59375 L4.22222222,13.59375 C3.85277778,13.59375 3.55555556,13.9072266 3.55555556,14.296875 C3.55555556,14.6865234 3.85277778,15 4.22222222,15 L11.7777778,15 C12.1472222,15 12.4444444,14.6865234 12.4444444,14.296875 C12.4444444,13.9072266 12.1472222,13.59375 11.7777778,13.59375 L9.77777778,13.59375 L9.33333333,12.1875 L14.6666667,12.1875 C15.4027778,12.1875 16,11.5576172 16,10.78125 L16,1.40625 C16,0.629882812 15.4027778,0 14.6666667,0 Z M14.2222222,10.3125 L1.77777778,10.3125 L1.77777778,1.875 L14.2222222,1.875 L14.2222222,10.3125 Z" id="Shape"></path>
        </g>
    </g>
</svg>