<?xml version="1.0" encoding="UTF-8"?>
<svg width="24px" height="24px" viewBox="0 0 24 24" version="1.1" xmlns="http://www.w3.org/2000/svg" xmlns:xlink="http://www.w3.org/1999/xlink">
    <!-- Generator: Sketch 61.2 (89653) - https://sketch.com -->
    <title>2 - CHARTE / Icons / default / dupliquer</title>
    <desc>Created with Sketch.</desc>
    <g id="2---CHARTE-/-Icons-/-default-/-dupliquer" stroke="none" stroke-width="1" fill="none" fill-rule="evenodd">
        <g id="clone-regular" transform="translate(4.000000, 4.000000)" fill="#402955">
            <path d="M14.5,0 L4.5,0 C3.6715625,0 3,0.6715625 3,1.5 L3,3 L1.5,3 C0.6715625,3 0,3.6715625 0,4.5 L0,14.5 C0,15.3284375 0.6715625,16 1.5,16 L11.5,16 C12.3284375,16 13,15.3284375 13,14.5 L13,13 L14.5,13 C15.3284375,13 16,12.3284375 16,11.5 L16,1.5 C16,0.6715625 15.3284375,0 14.5,0 Z M11.3125,14.5 L1.6875,14.5 C1.58394661,14.5 1.5,14.4160534 1.5,14.3125 L1.5,4.6875 C1.5,4.58394661 1.58394661,4.5 1.6875,4.5 L3,4.5 L3,11.5 C3,12.3284375 3.6715625,13 4.5,13 L11.5,13 L11.5,14.3125 C11.5,14.4160534 11.4160534,14.5 11.3125,14.5 Z M14.3125,11.5 L4.6875,11.5 C4.58394661,11.5 4.5,11.4160534 4.5,11.3125 L4.5,1.6875 C4.5,1.58394661 4.58394661,1.5 4.6875,1.5 L14.3125,1.5 C14.4160534,1.5 14.5,1.58394661 14.5,1.6875 L14.5,11.3125 C14.5,11.4160534 14.4160534,11.5 14.3125,11.5 Z" id="形状"></path>
        </g>
    </g>
</svg>