<?xml version="1.0" encoding="UTF-8"?>
<svg width="24px" height="24px" viewBox="0 0 24 24" version="1.1" xmlns="http://www.w3.org/2000/svg" xmlns:xlink="http://www.w3.org/1999/xlink">
    <!-- Generator: Sketch 61.2 (89653) - https://sketch.com -->
    <title>2 - CHARTE / Icons / default / edit</title>
    <desc>Created with Sketch.</desc>
    <g id="2---CHARTE-/-Icons-/-default-/-edit" stroke="none" stroke-width="1" fill="none" fill-rule="evenodd">
        <g id="pencil-alt-solid-copy" transform="translate(5.000000, 5.000000)" fill="#402955">
            <path d="M13.5879142,3.87797271 L12.3298246,5.13606238 C12.2015595,5.26432749 11.994152,5.26432749 11.8658869,5.13606238 L8.83664717,2.10682261 C8.70838207,1.9785575 8.70838207,1.7711501 8.83664717,1.64288499 L10.0947368,0.384795322 C10.6050682,-0.125536062 11.4346979,-0.125536062 11.9477583,0.384795322 L13.5879142,2.02495127 C14.1009747,2.53528265 14.1009747,3.36491228 13.5879142,3.87797271 Z M7.75594542,2.72358674 L0.589473684,9.89005848 L0.0109161793,13.205848 C-0.0682261209,13.6534113 0.32202729,14.0409357 0.769590643,13.9645224 L4.08538012,13.3832359 L11.2518519,6.21676413 C11.380117,6.08849903 11.380117,5.88109162 11.2518519,5.75282651 L8.22261209,2.72358674 C8.09161793,2.59532164 7.88421053,2.59532164 7.75594542,2.72358674 Z M2.40155945,11.5711501 L3.71150097,11.5711501 L3.71150097,12.5617934 L1.95126706,12.8701754 L1.10253411,12.0214425 L1.41091618,10.2612086 L2.40155945,10.2612086 L2.40155945,11.5711501 Z" id="Shape"></path>
        </g>
    </g>
</svg>