<?xml version="1.0" encoding="UTF-8"?>
<svg width="24px" height="24px" viewBox="0 0 24 24" version="1.1" xmlns="http://www.w3.org/2000/svg" xmlns:xlink="http://www.w3.org/1999/xlink">
    <!-- Generator: Sketch 61.2 (89653) - https://sketch.com -->
    <title>2 - CHARTE / Icons / default / envelope-open-text</title>
    <desc>Created with Sketch.</desc>
    <g id="2---CHARTE-/-Icons-/-default-/-envelope-open-text" stroke="none" stroke-width="1" fill="none" fill-rule="evenodd">
        <g id="envelope-open-text" transform="translate(4.000000, 4.000000)" fill="#402955">
            <path d="M5.5,6.75006478 L10.5,6.75006478 C10.77625,6.75006478 11,6.52630709 11,6.25006478 L11,5.75006478 C11,5.47381343 10.77625,5.25006478 10.5,5.25006478 L5.5,5.25006478 C5.22375,5.25006478 5,5.47381343 5,5.75006478 L5,6.25006478 C5,6.52630709 5.22375,6.75006478 5.5,6.75006478 Z M5,9.2500467 C5,9.52628901 5.22375,9.7500467 5.5,9.7500467 L10.5,9.7500467 C10.77625,9.7500467 11,9.52628901 11,9.2500467 L11,8.7500467 C11,8.47379535 10.77625,8.2500467 10.5,8.2500467 L5.5,8.2500467 C5.22375,8.2500467 5,8.47379535 5,8.7500467 L5,9.2500467 Z M8,13.0353304 C7.486875,13.0353304 6.97375,12.8772063 6.535625,12.5606457 L5.32907052e-15,7.83942418 L5.32907052e-15,14.500009 C5.32907052e-15,15.3284415 0.6715625,16 1.5,16 L14.5,16 C15.3284375,16 16,15.3284415 16,14.500009 L16,7.83942418 L9.464375,12.5606457 C9.02625,12.8768938 8.513125,13.0353304 8,13.0353304 Z M15.4253125,5.09225323 C15.14875,4.87537954 14.8865625,4.67131827 14.5,4.37944503 L14.5,3.00007834 C14.5,2.17164583 13.8284375,1.50008738 13,1.50008738 L10.5765625,1.50008738 C10.4815625,1.43133779 10.393125,1.36696318 10.2940625,1.29508861 C9.76875,0.911653424 8.725,-0.0108410168 8,9.64172515e-05 C7.275,-0.0108410168 6.2315625,0.911653424 5.7059375,1.29508861 C5.606875,1.36696318 5.5184375,1.43133779 5.4234375,1.50008738 L3,1.50008738 C2.1715625,1.50008738 1.5,2.17164583 1.5,3.00007834 L1.5,4.37944503 C1.1134375,4.67100577 0.85125,4.87537954 0.5746875,5.09225323 C0.21196988,5.37650905 0,5.81172909 0,6.27255862 L0,6.60536911 L3,8.77254355 L3,3.00007834 L13,3.00007834 L13,8.77254355 L16,6.60536911 L16,6.27255862 C16,5.81193639 15.788125,5.37662652 15.4253125,5.09225323 Z" id="Shape"></path>
        </g>
    </g>
</svg>