<?xml version="1.0" encoding="UTF-8"?>
<svg width="24px" height="24px" viewBox="0 0 24 24" version="1.1" xmlns="http://www.w3.org/2000/svg" xmlns:xlink="http://www.w3.org/1999/xlink">
    <!-- Generator: Sketch 61.2 (89653) - https://sketch.com -->
    <title>2 - CHARTE / Icons / default / exchange</title>
    <desc>Created with Sketch.</desc>
    <g id="2---CHARTE-/-Icons-/-default-/-exchange" stroke="none" stroke-width="1" fill="none" fill-rule="evenodd">
        <g id="file-audio-solid" transform="translate(6.000000, 4.000000)" fill="#402955">
            <path d="M7,4.25 L7,0 L0.75,0 C0.334375,0 0,0.334375 0,0.75 L0,15.25 C0,15.665625 0.334375,16 0.75,16 L11.25,16 C11.665625,16 12,15.665625 12,15.25 L12,5 L7.75,5 C7.3375,5 7,4.6625 7,4.25 Z M5,12.625 C5,12.959375 4.596875,13.125 4.359375,12.890625 L3.25,11.75 L2.375,11.75 C2.16875,11.75 2,11.58125 2,11.375 L2,9.625 C2,9.41875 2.16875,9.25 2.375,9.25 L3.25,9.25 L4.359375,8.109375 C4.596875,7.871875 5,8.040625 5,8.375 L5,12.625 Z M6.0375,11.1375 C6.321875,10.846875 6.321875,10.384375 6.0375,10.09375 C5.346875,9.38125 6.41875,8.3375 7.1125,9.046875 C7.9625,9.91875 7.9625,11.309375 7.1125,12.184375 C6.43125,12.88125 5.334375,11.859375 6.0375,11.1375 Z M8.725,7.478125 C10.425,9.225 10.425,12.003125 8.725,13.753125 C8.04375,14.453125 6.94375,13.43125 7.65,12.70625 C8.78125,11.54375 8.784375,9.690625 7.65,8.525 C6.959375,7.8125 8.034375,6.765625 8.725,7.478125 Z M12,3.809375 L12,4 L8,4 L8,0 L8.190625,0 C8.390625,0 8.58125,0.078125 8.721875,0.21875 L11.78125,3.28125 C11.921875,3.421875 12,3.6125 12,3.809375 Z" id="Shape"></path>
        </g>
    </g>
</svg>