<?xml version="1.0" encoding="UTF-8"?>
<svg width="24px" height="24px" viewBox="0 0 24 24" version="1.1" xmlns="http://www.w3.org/2000/svg" xmlns:xlink="http://www.w3.org/1999/xlink">
    <!-- Generator: Sketch 61.2 (89653) - https://sketch.com -->
    <title>2 - CHARTE / Icons / default / FausseBoxQuestion</title>
    <desc>Created with Sketch.</desc>
    <g id="2---CHARTE-/-Icons-/-default-/-FausseBoxQuestion" stroke="none" stroke-width="1" fill="none" fill-rule="evenodd">
        <g id="times-square" transform="translate(4.000000, 4.000000)">
            <g id="Group">
                <path d="M14.2857143,0 L1.71428571,0 C0.767857143,0 0,0.767857143 0,1.71428571 L0,14.2857143 C0,15.2321429 0.767857143,16 1.71428571,16 L14.2857143,16 C15.2321429,16 16,15.2321429 16,14.2857143 L16,1.71428571 C16,0.767857143 15.2321429,0 14.2857143,0 Z" id="Path" fill="#402955"></path>
                <path d="M12.3966327,10.4772079 C12.5565848,10.63716 12.5565848,10.8958059 12.3966327,11.0557579 L11.0489515,12.4000359 C10.8889994,12.559988 10.6303535,12.559988 10.4704014,12.4000359 L8.25829838,10.1675135 L6.04279209,12.4000359 C5.88284002,12.559988 5.62419413,12.559988 5.46424206,12.4000359 L4.11996405,11.0523547 C3.96001198,10.8924026 3.96001198,10.6337567 4.11996405,10.4738047 L6.35248652,8.26170162 L4.11996405,6.04619533 C3.96001198,5.88624326 3.96001198,5.62759736 4.11996405,5.4676453 L5.4676453,4.11996405 C5.62759736,3.96001198 5.88624326,3.96001198 6.04619533,4.11996405 L8.25829838,6.35588975 L10.4738047,4.12336729 C10.6337567,3.96341522 10.8924026,3.96341522 11.0523547,4.12336729 L12.4000359,5.47104853 C12.559988,5.6310006 12.559988,5.88964649 12.4000359,6.04959856 L10.1641102,8.26170162 L12.3966327,10.4772079 Z" id="Path" fill="#FFFFFF"></path>
            </g>
        </g>
    </g>
</svg>