<?xml version="1.0" encoding="UTF-8"?>
<svg width="24px" height="24px" viewBox="0 0 24 24" version="1.1" xmlns="http://www.w3.org/2000/svg" xmlns:xlink="http://www.w3.org/1999/xlink">
    <!-- Generator: Sketch 61.2 (89653) - https://sketch.com -->
    <title>2 - CHARTE / Icons / default / fermer</title>
    <desc>Created with Sketch.</desc>
    <g id="2---CHARTE-/-Icons-/-default-/-fermer" stroke="none" stroke-width="1" fill="none" fill-rule="evenodd">
        <g id="Group" transform="translate(4.000000, 4.000000)">
            <circle id="Oval" fill="#402955" cx="8" cy="8" r="8"></circle>
            <g id="times-solid" transform="translate(5.000000, 5.000000)" fill="#FFFFFF">
                <path d="M4.13727273,3 L5.84301136,1.29426136 C6.05232955,1.08494318 6.05232955,0.745568182 5.84301136,0.536079545 L5.46392045,0.156988636 C5.25460227,-0.0523295455 4.91522727,-0.0523295455 4.70573864,0.156988636 L3,1.86272727 L1.29426136,0.156988636 C1.08494318,-0.0523295455 0.745568182,-0.0523295455 0.536079545,0.156988636 L0.156988636,0.536079545 C-0.0523295455,0.745397727 -0.0523295455,1.08477273 0.156988636,1.29426136 L1.86272727,3 L0.156988636,4.70573864 C-0.0523295455,4.91505682 -0.0523295455,5.25443182 0.156988636,5.46392045 L0.536079545,5.84301136 C0.745397727,6.05232955 1.08494318,6.05232955 1.29426136,5.84301136 L3,4.13727273 L4.70573864,5.84301136 C4.91505682,6.05232955 5.25460227,6.05232955 5.46392045,5.84301136 L5.84301136,5.46392045 C6.05232955,5.25460227 6.05232955,4.91522727 5.84301136,4.70573864 L4.13727273,3 Z" id="Path"></path>
            </g>
        </g>
    </g>
</svg>