<?xml version="1.0" encoding="UTF-8"?>
<svg width="24px" height="24px" viewBox="0 0 24 24" version="1.1" xmlns="http://www.w3.org/2000/svg" xmlns:xlink="http://www.w3.org/1999/xlink">
    <!-- Generator: Sketch 61.2 (89653) - https://sketch.com -->
    <title>2 - CHARTE / Icons / default / filtre</title>
    <desc>Created with Sketch.</desc>
    <g id="2---CHARTE-/-Icons-/-default-/-filtre" stroke="none" stroke-width="1" fill="none" fill-rule="evenodd">
        <g id="sort-amount-down-alt-solid" transform="translate(4.000000, 5.000000)" fill="#402955">
            <path d="M7.5165692,2 L9.51267057,2 C9.78827465,2 10.0116959,1.77614237 10.0116959,1.5 L10.0116959,0.5 C10.0116959,0.223857625 9.78827465,0 9.51267057,0 L7.5165692,0 C7.24096512,0 7.01754386,0.223857625 7.01754386,0.5 L7.01754386,1.5 C7.01754386,1.77614237 7.24096512,2 7.5165692,2 Z M7.5165692,6 L11.5087719,6 C11.784376,6 12.0077973,5.77614237 12.0077973,5.5 L12.0077973,4.5 C12.0077973,4.22385763 11.784376,4 11.5087719,4 L7.5165692,4 C7.24096512,4 7.01754386,4.22385763 7.01754386,4.5 L7.01754386,5.5 C7.01754386,5.77614237 7.24096512,6 7.5165692,6 Z M15.5009747,12 L7.5165692,12 C7.24096512,12 7.01754386,12.2238576 7.01754386,12.5 L7.01754386,13.5 C7.01754386,13.7761424 7.24096512,14 7.5165692,14 L15.5009747,14 C15.7765787,14 16,13.7761424 16,13.5 L16,12.5 C16,12.2238576 15.7765787,12 15.5009747,12 Z M7.5165692,10 L13.5048733,10 C13.7804774,10 14.0038986,9.77614237 14.0038986,9.5 L14.0038986,8.5 C14.0038986,8.22385763 13.7804774,8 13.5048733,8 L7.5165692,8 C7.24096512,8 7.01754386,8.22385763 7.01754386,8.5 L7.01754386,9.5 C7.01754386,9.77614237 7.24096512,10 7.5165692,10 Z M5.52046784,10 L4.02339181,10 L4.02339181,0.5 C4.02339181,0.223857625 3.79997056,0 3.52436647,0 L2.52631579,0 C2.2507117,0 2.02729045,0.223857625 2.02729045,0.5 L2.02729045,10 L0.530214425,10 C0.0876413255,10 -0.136296296,10.53875 0.178089669,10.8534375 L2.67321637,13.8534375 C2.8680714,14.0485452 3.18385842,14.0485452 3.37871345,13.8534375 L5.87384016,10.8534375 C6.18635478,10.539375 5.96397661,10 5.52046784,10 Z" id="形状"></path>
        </g>
    </g>
</svg>