<?xml version="1.0" encoding="UTF-8"?>
<svg width="24px" height="24px" viewBox="0 0 24 24" version="1.1" xmlns="http://www.w3.org/2000/svg" xmlns:xlink="http://www.w3.org/1999/xlink">
    <!-- Generator: Sketch 61.2 (89653) - https://sketch.com -->
    <title>2 - CHARTE / Icons / default / grin-wink</title>
    <desc>Created with Sketch.</desc>
    <g id="2---CHARTE-/-Icons-/-default-/-grin-wink" stroke="none" stroke-width="1" fill="none" fill-rule="evenodd">
        <g id="grin-wink" transform="translate(4.000000, 4.000000)" fill="#402955">
            <path d="M0,8 C0,12.4193548 3.58064516,16 8,16 C12.4193548,16 16,12.4193548 16,8 C16,3.58064516 12.4193548,0 8,0 C3.58064516,0 0,3.58064516 0,8 Z M6.4516129,6.4516129 C6.4516129,7.02258065 5.99032258,7.48387097 5.41935484,7.48387097 C4.8483871,7.48387097 4.38709677,7.02258065 4.38709677,6.4516129 C4.38709677,5.88064516 4.8483871,5.41935484 5.41935484,5.41935484 C5.99032258,5.41935484 6.4516129,5.88064516 6.4516129,6.4516129 Z M11.8709677,7.25806452 L11.5645161,6.98387097 C11.0870968,6.55806452 10.0741935,6.55806452 9.59677419,6.98387097 L9.29032258,7.25806452 C9.02258065,7.49677419 8.59354839,7.27096774 8.6516129,6.90967742 C8.78064516,6.09677419 9.75483871,5.5516129 10.583871,5.5516129 C11.4129032,5.5516129 12.3870968,6.09677419 12.516129,6.90967742 C12.5677419,7.26451613 12.1451613,7.49677419 11.8709677,7.25806452 Z M4.02903226,10.0903226 C5.00322581,10.4032258 6.4516129,10.5806452 8,10.5806452 C9.5483871,10.5806452 10.9967742,10.4032258 11.9709677,10.0903226 C12.3354839,9.97096774 12.7,10.283871 12.6387097,10.6677419 C12.3419355,12.4419355 9.95483871,13.6774194 8,13.6774194 C6.04516129,13.6774194 3.66129032,12.4419355 3.36129032,10.6677419 C3.29677419,10.283871 3.66129032,9.97096774 4.02903226,10.0903226 Z" id="Shape"></path>
        </g>
    </g>
</svg>