<?xml version="1.0" encoding="UTF-8"?>
<svg width="24px" height="24px" viewBox="0 0 24 24" version="1.1" xmlns="http://www.w3.org/2000/svg" xmlns:xlink="http://www.w3.org/1999/xlink">
    <!-- Generator: Sketch 61.2 (89653) - https://sketch.com -->
    <title>2 - CHARTE / Icons / default / grin-hearts</title>
    <desc>Created with Sketch.</desc>
    <g id="2---CHARTE-/-Icons-/-default-/-grin-hearts" stroke="none" stroke-width="1" fill="none" fill-rule="evenodd">
        <g id="grin-hearts" transform="translate(4.000000, 4.000000)" fill="#402955">
            <path d="M8,0 C3.58064516,0 0,3.58064516 0,8 C0,12.4193548 3.58064516,16 8,16 C12.4193548,16 16,12.4193548 16,8 C16,3.58064516 12.4193548,0 8,0 Z M2.91612903,5.66451613 C3.13225806,5.09677419 3.77741935,4.80322581 4.36451613,4.95806452 L4.59354839,5.01935484 L4.65806452,4.79032258 C4.81935484,4.20645161 5.39354839,3.79354839 5.99677419,3.89032258 C6.68709677,4 7.10645161,4.67096774 6.92580645,5.32580645 L6.3,7.58064516 C6.26129032,7.72580645 6.10967742,7.81290323 5.96129032,7.77419355 L3.69677419,7.18709677 C3.03870968,7.01290323 2.66774194,6.31612903 2.91612903,5.66451613 L2.91612903,5.66451613 Z M8,13.6774194 C6.04516129,13.6774194 3.66129032,12.4419355 3.36129032,10.6677419 C3.29677419,10.2870968 3.65806452,9.97419355 4.02903226,10.0903226 C5.00322581,10.4032258 6.4516129,10.5806452 8,10.5806452 C9.5483871,10.5806452 10.9967742,10.4032258 11.9709677,10.0903226 C12.3387097,9.97419355 12.7,10.2870968 12.6387097,10.6677419 C12.3387097,12.4419355 9.95483871,13.6774194 8,13.6774194 Z M12.3032258,7.18387097 L10.0387097,7.77096774 C9.89354839,7.80967742 9.74193548,7.72258065 9.7,7.57741935 L9.07419355,5.32258065 C8.89354839,4.66774194 9.31290323,3.99677419 10.0032258,3.88709677 C10.6032258,3.79032258 11.1774194,4.20322581 11.3419355,4.78709677 L11.4064516,5.01612903 L11.6354839,4.95483871 C12.2225806,4.80322581 12.8677419,5.09354839 13.083871,5.66129032 C13.3322581,6.31612903 12.9612903,7.01290323 12.3032258,7.18387097 L12.3032258,7.18387097 Z" id="Shape"></path>
        </g>
    </g>
</svg>