<?xml version="1.0" encoding="UTF-8"?>
<svg width="24px" height="24px" viewBox="0 0 24 24" version="1.1" xmlns="http://www.w3.org/2000/svg" xmlns:xlink="http://www.w3.org/1999/xlink">
    <!-- Generator: Sketch 61.2 (89653) - https://sketch.com -->
    <title>2 - CHARTE / Icons / default / Home</title>
    <desc>Created with Sketch.</desc>
    <g id="2---CHARTE-/-Icons-/-default-/-Home" stroke="none" stroke-width="1" fill="none" fill-rule="evenodd">
        <g id="Home" transform="translate(3.000000, 4.000000)" fill="#402955">
            <path d="M9.0001455,3.42486198 L2.17120892,9.16354095 C2.12058485,9.20701805 2.05589855,9.22726766 2.00027457,9.26330005 L2.00027457,14.7705975 C2.00027457,15.0337398 2.22412807,15.2470588 2.50027457,15.2470588 L6.5001916,15.2470588 C6.77632888,15.2470588 7.00018238,15.0337398 7.00018238,14.7705975 L7.00018238,10.9589068 C7.00018238,10.6957645 7.22403588,10.4824455 7.50017316,10.4824455 L10.5001178,10.4824455 C10.7762551,10.4824455 11.0001086,10.6957645 11.0001086,10.9589068 L11.0001086,14.7705975 C11.0001086,15.0337398 11.2239621,15.2470588 11.5000994,15.2470588 L15.5000256,15.2470588 C15.7761629,15.2470588 16.0000164,15.0337398 16.0000164,14.7705975 L16.0000164,9.2644912 C15.9468924,9.22994775 15.8837686,9.21029372 15.8356445,9.16919893 L9.0001455,3.42486198 Z M17.8340451,7.03643889 L9.83606759,0.306422546 C9.361846,-0.102140849 8.64000747,-0.102140849 8.16578589,0.306422546 L0.165933397,7.03643889 C0.0672403759,7.12089135 0.00780732167,7.23925408 0.000715757285,7.36547484 C-0.0063758071,7.4916956 0.0394553646,7.61542894 0.128121594,7.70944052 L0.797171757,8.41877233 C0.885794798,8.51282088 1.01000273,8.56945703 1.14245674,8.57621487 C1.27491075,8.58297271 1.40475451,8.53929834 1.50340873,8.45480472 L8.6695266,2.43114231 C8.85852513,2.272252 9.14207836,2.272252 9.3310769,2.43114231 L16.4971948,8.45450693 C16.595849,8.53900055 16.7256927,8.58267492 16.8581468,8.57591708 C16.9906008,8.56915924 17.1148087,8.51252309 17.2034317,8.41847454 L17.8721694,7.70914273 C18.0565213,7.51332959 18.0394549,7.21219306 17.8340451,7.03643889 Z" id="Shape"></path>
        </g>
    </g>
</svg>