<?xml version="1.0" encoding="UTF-8"?>
<svg width="24px" height="24px" viewBox="0 0 24 24" version="1.1" xmlns="http://www.w3.org/2000/svg" xmlns:xlink="http://www.w3.org/1999/xlink">
    <!-- Generator: Sketch 61.2 (89653) - https://sketch.com -->
    <title>2 - CHARTE / Icons / default / hotel</title>
    <desc>Created with Sketch.</desc>
    <g id="2---CHARTE-/-Icons-/-default-/-hotel" stroke="none" stroke-width="1" fill="none" fill-rule="evenodd">
        <g id="hotel" transform="translate(4.000000, 5.000000)" fill="#402955">
            <path d="M15.5555556,1.75 C15.8011111,1.75 16,1.55421875 16,1.3125 L16,0.4375 C16,0.19578125 15.8011111,0 15.5555556,0 L0.444444444,0 C0.198888889,0 0,0.19578125 0,0.4375 L0,1.3125 C0,1.55421875 0.198888889,1.75 0.444444444,1.75 L0.888333333,1.75 L0.888333333,12.25 L0.444444444,12.25 C0.198888889,12.25 0,12.4457813 0,12.6875 L0,13.5625 C0,13.8042187 0.198888889,14 0.444444444,14 L7.11111111,14 L7.11111111,11.8125 C7.11111111,11.571875 7.31111111,11.375 7.55555556,11.375 L8.44444444,11.375 C8.68888889,11.375 8.88888889,11.571875 8.88888889,11.8125 L8.88888889,14 L15.5555556,14 C15.8011111,14 16,13.8042187 16,13.5625 L16,12.6875 C16,12.4457813 15.8011111,12.25 15.5555556,12.25 L15.1111111,12.25 L15.1111111,1.75 L15.5555556,1.75 Z M7.11111111,2.975 C7.11111111,2.8 7.28888889,2.625 7.46666667,2.625 L8.53333333,2.625 C8.71111111,2.625 8.88888889,2.8 8.88888889,2.975 L8.88888889,4.025 C8.88888889,4.2 8.71111111,4.375 8.53333333,4.375 L7.46666667,4.375 C7.28888889,4.375 7.11111111,4.2 7.11111111,4.025 L7.11111111,2.975 L7.11111111,2.975 Z M7.11111111,5.6 C7.11111111,5.425 7.28888889,5.25 7.46666667,5.25 L8.53333333,5.25 C8.71111111,5.25 8.88888889,5.425 8.88888889,5.6 L8.88888889,6.65 C8.88888889,6.825 8.71111111,7 8.53333333,7 L7.46666667,7 C7.28888889,7 7.11111111,6.825 7.11111111,6.65 L7.11111111,5.6 L7.11111111,5.6 Z M3.55555556,2.975 C3.55555556,2.8 3.73333333,2.625 3.91111111,2.625 L4.97777778,2.625 C5.15555556,2.625 5.33333333,2.8 5.33333333,2.975 L5.33333333,4.025 C5.33333333,4.2 5.15555556,4.375 4.97777778,4.375 L3.91111111,4.375 C3.73333333,4.375 3.55555556,4.2 3.55555556,4.025 L3.55555556,2.975 Z M4.97777778,7 L3.91111111,7 C3.73333333,7 3.55555556,6.825 3.55555556,6.65 L3.55555556,5.6 C3.55555556,5.425 3.73333333,5.25 3.91111111,5.25 L4.97777778,5.25 C5.15555556,5.25 5.33333333,5.425 5.33333333,5.6 L5.33333333,6.65 C5.33333333,6.825 5.15555556,7 4.97777778,7 Z M5.33333333,10.5 C5.33333333,9.05023438 6.52722222,7.875 8,7.875 C9.47277778,7.875 10.6666667,9.05023438 10.6666667,10.5 L5.33333333,10.5 Z M12.4444444,6.65 C12.4444444,6.825 12.2666667,7 12.0888889,7 L11.0222222,7 C10.8444444,7 10.6666667,6.825 10.6666667,6.65 L10.6666667,5.6 C10.6666667,5.425 10.8444444,5.25 11.0222222,5.25 L12.0888889,5.25 C12.2666667,5.25 12.4444444,5.425 12.4444444,5.6 L12.4444444,6.65 Z M12.4444444,4.025 C12.4444444,4.2 12.2666667,4.375 12.0888889,4.375 L11.0222222,4.375 C10.8444444,4.375 10.6666667,4.2 10.6666667,4.025 L10.6666667,2.975 C10.6666667,2.8 10.8444444,2.625 11.0222222,2.625 L12.0888889,2.625 C12.2666667,2.625 12.4444444,2.8 12.4444444,2.975 L12.4444444,4.025 Z" id="Shape"></path>
        </g>
    </g>
</svg>