<?xml version="1.0" encoding="UTF-8"?>
<svg width="24px" height="24px" viewBox="0 0 24 24" version="1.1" xmlns="http://www.w3.org/2000/svg" xmlns:xlink="http://www.w3.org/1999/xlink">
    <!-- Generator: Sketch 61.2 (89653) - https://sketch.com -->
    <title>2 - CHARTE / Icons / default / laptop-code</title>
    <desc>Created with Sketch.</desc>
    <g id="2---CHARTE-/-Icons-/-default-/-laptop-code" stroke="none" stroke-width="1" fill="none" fill-rule="evenodd">
        <g id="laptop-code" transform="translate(3.000000, 5.000000)" fill="#402955">
            <path d="M7.17271875,7.15449219 C7.3485,7.32539062 7.63340625,7.32539062 7.8091875,7.15449219 L8.12728125,6.84523437 C8.3030625,6.67433594 8.3030625,6.39734375 8.12728125,6.22644531 L7.12265625,5.25 L8.127,4.27328125 C8.30278125,4.10238281 8.30278125,3.82539062 8.127,3.65449219 L7.80890625,3.34523437 C7.633125,3.17433594 7.34821875,3.17433594 7.1724375,3.34523437 L5.531625,4.94046875 C5.35584375,5.11136719 5.35584375,5.38835937 5.531625,5.55925781 L7.17271875,7.15449219 L7.17271875,7.15449219 Z M9.873,6.84550781 L10.1910937,7.15476563 C10.366875,7.32566406 10.6517812,7.32566406 10.8275625,7.15476563 L12.468375,5.55953125 C12.6441562,5.38863281 12.6441562,5.11164063 12.468375,4.94074219 L10.8275625,3.34550781 C10.6517812,3.17460937 10.366875,3.17460937 10.1910937,3.34550781 L9.873,3.65476562 C9.69721875,3.82566406 9.69721875,4.10265625 9.873,4.27355469 L10.8773437,5.25 L9.873,6.22671875 C9.69721875,6.39761719 9.69721875,6.67460938 9.873,6.84550781 L9.873,6.84550781 Z M17.55,11.375 L10.7308125,11.375 C10.71,11.9166797 10.3170938,12.25 9.81,12.25 L8.1,12.25 C7.57434375,12.25 7.1713125,11.7723047 7.17834375,11.375 L0.45,11.375 C0.2025,11.375 0,11.571875 0,11.8125 L0,12.25 C0,13.2125 0.81,14 1.8,14 L16.2,14 C17.19,14 18,13.2125 18,12.25 L18,11.8125 C18,11.571875 17.7975,11.375 17.55,11.375 Z M16.2,1.3125 C16.2,0.590625 15.5925,0 14.85,0 L3.15,0 C2.4075,0 1.8,0.590625 1.8,1.3125 L1.8,10.5 L16.2,10.5 L16.2,1.3125 Z M14.4,8.75 L3.6,8.75 L3.6,1.75 L14.4,1.75 L14.4,8.75 Z" id="Shape"></path>
        </g>
    </g>
</svg>