<?xml version="1.0" encoding="UTF-8"?>
<svg width="24px" height="24px" viewBox="0 0 24 24" version="1.1" xmlns="http://www.w3.org/2000/svg" xmlns:xlink="http://www.w3.org/1999/xlink">
    <!-- Generator: Sketch 61.2 (89653) - https://sketch.com -->
    <title>2 - CHARTE / Icons / default / Lock</title>
    <desc>Created with Sketch.</desc>
    <g id="2---CHARTE-/-Icons-/-default-/-Lock" stroke="none" stroke-width="1" fill="none" fill-rule="evenodd">
        <path d="M12,4 C16.418278,4 20,7.581722 20,12 C20,16.418278 16.418278,20 12,20 C7.581722,20 4,16.418278 4,12 C4,7.581722 7.581722,4 12,4 Z M12.1,8 C10.9028571,8 9.92857143,9.065625 9.92857143,10.375 L9.92857143,11.5 L9.58571429,11.5 C9.20714286,11.5 8.9,11.8359375 8.9,12.25 L8.9,15.25 C8.9,15.6640625 9.20714286,16 9.58571429,16 L14.6142857,16 C14.9928571,16 15.3,15.6640625 15.3,15.25 L15.3,12.25 C15.3,11.8359375 14.9928571,11.5 14.6142857,11.5 L14.2714286,11.5 L14.2714286,10.375 C14.2714286,9.065625 13.2971429,8 12.1,8 Z M12.1,9.25 C12.6671429,9.25 13.1285714,9.7546875 13.1285714,10.375 L13.1285714,11.5 L11.0714286,11.5 L11.0714286,10.375 C11.0714286,9.7546875 11.5328571,9.25 12.1,9.25 Z" id="Combined-Shape" fill="#402955"></path>
    </g>
</svg>