<?xml version="1.0" encoding="UTF-8"?>
<svg width="24px" height="24px" viewBox="0 0 24 24" version="1.1" xmlns="http://www.w3.org/2000/svg" xmlns:xlink="http://www.w3.org/1999/xlink">
    <!-- Generator: Sketch 61.2 (89653) - https://sketch.com -->
    <title>2 - CHARTE / Icons / default / medal</title>
    <desc>Created with Sketch.</desc>
    <g id="2---CHARTE-/-Icons-/-default-/-medal" stroke="none" stroke-width="1" fill="none" fill-rule="evenodd">
        <g id="medal" transform="translate(4.000000, 4.500000)" fill="#402955">
            <path d="M6.99218465,3.83056641 L4.83186605,0.455273437 C4.65118434,0.172834941 4.32565928,0 3.97436363,0 L0.50091631,0 C0.096227667,0 -0.140648002,0.426855469 0.0912276529,0.737695313 L3.56842498,5.39472656 C4.4971776,4.58115234 5.67843094,4.02275391 6.99218465,3.83056641 Z M15.4990837,0 L12.0256364,0 C11.6743854,0 11.3487595,0.172851563 11.168134,0.455273438 L9.00781535,3.83056641 C10.3215691,4.02275391 11.5028224,4.58115234 12.431575,5.39443359 L15.9087723,0.737695313 C16.140648,0.426855469 15.9037723,0 15.4990837,0 Z M8,4.6875 C4.96249142,4.6875 2.49998446,6.99609375 2.49998446,9.84375 C2.49998446,12.6914063 4.96249142,15 8,15 C11.0375086,15 13.5000155,12.6914063 13.5000155,9.84375 C13.5000155,6.99609375 11.0375086,4.6875 8,4.6875 Z M10.8912582,9.29472656 L9.70594232,10.3775391 L9.98625561,11.9074219 C10.0362558,12.1816406 9.72812988,12.3911133 9.46594164,12.2616211 L8,11.5394531 L6.53437086,12.2616211 C6.27187012,12.3919922 5.96405675,12.1813477 6.01405689,11.9074219 L6.29437018,10.3775391 L5.10905433,9.29472656 C4.89592873,9.10019531 5.01374156,8.76064453 5.30749239,8.72080078 L6.94593452,8.49697266 L7.67812409,7.10478516 C7.74406178,6.97939453 7.87156214,6.91757813 7.999375,6.91757813 C8.12781286,6.91757813 8.25625072,6.98027344 8.32218841,7.10478516 L9.05437798,8.49697266 L10.6928201,8.72080078 C10.9865709,8.76064453 11.1043838,9.10019531 10.8912582,9.29472656 L10.8912582,9.29472656 Z" id="Shape"></path>
        </g>
    </g>
</svg>