<?xml version="1.0" encoding="UTF-8"?>
<svg width="24px" height="24px" viewBox="0 0 24 24" version="1.1" xmlns="http://www.w3.org/2000/svg" xmlns:xlink="http://www.w3.org/1999/xlink">
    <!-- Generator: Sketch 61.2 (89653) - https://sketch.com -->
    <title>2 - CHARTE / Icons / default / media</title>
    <desc>Created with Sketch.</desc>
    <g id="2---CHARTE-/-Icons-/-default-/-media" stroke="none" stroke-width="1" fill="none" fill-rule="evenodd">
        <g id="file-alt-solid" transform="translate(6.000000, 4.000000)" fill="#402955">
            <path d="M7,4.25 L7,0 L0.75,0 C0.334375,0 0,0.334375 0,0.75 L0,15.25 C0,15.665625 0.334375,16 0.75,16 L11.25,16 C11.665625,16 12,15.665625 12,15.25 L12,5 L7.75,5 C7.3375,5 7,4.6625 7,4.25 Z M9,11.625 C9,11.83125 8.83125,12 8.625,12 L3.375,12 C3.16875,12 3,11.83125 3,11.625 L3,11.375 C3,11.16875 3.16875,11 3.375,11 L8.625,11 C8.83125,11 9,11.16875 9,11.375 L9,11.625 Z M9,9.625 C9,9.83125 8.83125,10 8.625,10 L3.375,10 C3.16875,10 3,9.83125 3,9.625 L3,9.375 C3,9.16875 3.16875,9 3.375,9 L8.625,9 C8.83125,9 9,9.16875 9,9.375 L9,9.625 Z M9,7.375 L9,7.625 C9,7.83125 8.83125,8 8.625,8 L3.375,8 C3.16875,8 3,7.83125 3,7.625 L3,7.375 C3,7.16875 3.16875,7 3.375,7 L8.625,7 C8.83125,7 9,7.16875 9,7.375 Z M12,3.809375 L12,4 L8,4 L8,0 L8.190625,0 C8.390625,0 8.58125,0.078125 8.721875,0.21875 L11.78125,3.28125 C11.921875,3.421875 12,3.6125 12,3.809375 Z" id="Shape"></path>
        </g>
    </g>
</svg>