<?xml version="1.0" encoding="UTF-8"?>
<svg width="24px" height="24px" viewBox="0 0 24 24" version="1.1" xmlns="http://www.w3.org/2000/svg" xmlns:xlink="http://www.w3.org/1999/xlink">
    <!-- Generator: Sketch 61.2 (89653) - https://sketch.com -->
    <title>2 - CHARTE / Icons / default / mobile-alt</title>
    <desc>Created with Sketch.</desc>
    <g id="2---CHARTE-/-Icons-/-default-/-mobile-alt" stroke="none" stroke-width="1" fill="none" fill-rule="evenodd">
        <g id="mobile-alt" transform="translate(7.000000, 4.000000)" fill="#402955">
            <path d="M8.5,0 L1.5,0 C0.671875,0 0,0.671875 0,1.5 L0,14.5 C0,15.328125 0.671875,16 1.5,16 L8.5,16 C9.328125,16 10,15.328125 10,14.5 L10,1.5 C10,0.671875 9.328125,0 8.5,0 Z M5,15 C4.446875,15 4,14.553125 4,14 C4,13.446875 4.446875,13 5,13 C5.553125,13 6,13.446875 6,14 C6,14.553125 5.553125,15 5,15 Z M8.5,11.625 C8.5,11.83125 8.33125,12 8.125,12 L1.875,12 C1.66875,12 1.5,11.83125 1.5,11.625 L1.5,1.875 C1.5,1.66875 1.66875,1.5 1.875,1.5 L8.125,1.5 C8.33125,1.5 8.5,1.66875 8.5,1.875 L8.5,11.625 Z" id="Shape"></path>
        </g>
    </g>
</svg>