<?xml version="1.0" encoding="UTF-8"?>
<svg width="24px" height="24px" viewBox="0 0 24 24" version="1.1" xmlns="http://www.w3.org/2000/svg" xmlns:xlink="http://www.w3.org/1999/xlink">
    <!-- Generator: Sketch 61.2 (89653) - https://sketch.com -->
    <title>2 - CHARTE / Icons / default / motorcycle</title>
    <desc>Created with Sketch.</desc>
    <g id="2---CHARTE-/-Icons-/-default-/-motorcycle" stroke="none" stroke-width="1" fill="none" fill-rule="evenodd">
        <g id="motorcycle" transform="translate(2.000000, 6.500000)" fill="#402955">
            <path d="M16.0255936,3.666607 C15.5600715,3.66374246 15.1164196,3.73249134 14.7008865,3.86426003 L13.6729887,2.29162937 L16.2474195,2.29162937 C16.6629527,2.29162937 16.9972537,1.98512395 16.9972537,1.60414056 L16.9972537,0.687488812 C16.9972537,0.306505429 16.6629527,0 16.2474195,0 L14.8321075,0 C14.6196544,0 14.4165743,0.0830715648 14.2759804,0.226298401 L13.1043645,1.42081021 L12.392022,0.332286259 C12.2545524,0.126039616 12.0108563,0 11.7484143,0 L9.24896692,0 C8.97402771,0 8.74907744,0.206246644 8.74907744,0.458325875 L8.74907744,0.91665175 C8.74907744,1.16873098 8.97402771,1.37497762 9.24896692,1.37497762 L11.3235082,1.37497762 L11.9233756,2.29162937 L7.12131235,2.29162937 C6.56830962,1.62992139 5.71849752,1.14581469 4.00012746,1.14581469 L2.26613585,1.14581469 C1.84435411,1.14581469 1.49130717,1.46091373 1.50068009,1.84762618 C1.50692871,2.22001596 1.8412298,2.52079231 2.2505143,2.52079231 L4.00012746,2.52079231 C4.76558321,2.52079231 5.20923512,2.83302681 5.49354725,3.23119742 L5.14050032,3.81842744 C4.73434012,3.70671051 4.30006114,3.65514885 3.85016061,3.66947154 C1.74750052,3.73822042 0.0510006253,5.31658015 0.00101167809,7.2472779 C-0.0489772691,9.31260887 1.75999776,10.999821 4.00012746,10.999821 C5.86221574,10.999821 7.42749465,9.83109002 7.87427087,8.24986575 L10.5049392,8.24986575 C10.9329696,8.24986575 11.2735193,7.92330856 11.2547734,7.53086703 C11.1891629,6.18167024 11.8015275,4.84679613 13.0106352,3.95019613 L13.4011738,4.54601977 C12.5388645,5.22491497 11.9921104,6.2332319 12.0014833,7.35899483 C12.0171049,9.35271238 13.7885882,10.9826338 15.9631074,10.999821 C18.2001128,11.0198728 20.0184607,9.35271238 19.9998585,7.30170409 C19.9778447,5.30798654 18.2001128,3.68092968 16.0255936,3.666607 L16.0255936,3.666607 Z M4.00012746,9.62484337 C2.6223071,9.62484337 1.50068009,8.59647469 1.50068009,7.333214 C1.50068009,6.0699533 2.6223071,5.04158462 4.00012746,5.04158462 C4.13134844,5.04158462 4.26256943,5.05017823 4.39066611,5.07022999 L3.09407779,7.23009068 C2.81913858,7.68841655 3.18155845,8.24986575 3.75018272,8.24986575 L6.2902461,8.24986575 C5.90283176,9.0576651 5.02177657,9.62484337 4.00012746,9.62484337 Z M18.4937978,7.45925361 C18.425063,8.62225552 17.4002896,9.56182356 16.1349444,9.62197883 C14.6946379,9.69359225 13.4980274,8.63944274 13.4980274,7.333214 C13.4980274,6.72020314 13.7604694,6.16448302 14.1884998,5.75485427 L15.7319085,8.11523252 C15.8725024,8.33293731 16.181809,8.40168619 16.4192565,8.27278204 L16.8472869,8.03789003 C17.0847344,7.90898588 17.1597178,7.62539674 17.0191239,7.40769195 L15.5007096,5.09028175 C15.6631737,5.05877184 15.8287621,5.04444356 15.9974748,5.04444356 C17.4221598,5.04158462 18.5687813,6.13870219 18.4937978,7.45925361 Z" id="Shape"></path>
        </g>
    </g>
</svg>