<?xml version="1.0" encoding="UTF-8"?>
<svg width="24px" height="24px" viewBox="0 0 24 24" version="1.1" xmlns="http://www.w3.org/2000/svg" xmlns:xlink="http://www.w3.org/1999/xlink">
    <!-- Generator: Sketch 61.2 (89653) - https://sketch.com -->
    <title>2 - CHARTE / Icons / default / newspaper</title>
    <desc>Created with Sketch.</desc>
    <g id="2---CHARTE-/-Icons-/-default-/-newspaper" stroke="none" stroke-width="1" fill="none" fill-rule="evenodd">
        <g id="newspaper" transform="translate(4.500000, 7.000000)" fill="#402955">
            <path d="M14.375,0 L2.29166667,0 C1.94648438,0 1.66666667,0.279817708 1.66666667,0.625 L1.66666667,0.833333333 L0.625,0.833333333 C0.279817708,0.833333333 0,1.11315104 0,1.45833333 L0,8.54166667 C0,9.34708333 0.652916667,10 1.45833333,10 L13.75,10 C14.4403646,10 15,9.44036458 15,8.75 L15,0.625 C15,0.279817708 14.7201823,0 14.375,0 Z M1.45833333,8.75 C1.34327401,8.75 1.25,8.65672599 1.25,8.54166667 L1.25,2.08333333 L1.66666667,2.08333333 L1.66666667,8.54166667 C1.66666667,8.65672599 1.57339266,8.75 1.45833333,8.75 Z M7.60416667,8.33333333 L3.64583333,8.33333333 C3.47325521,8.33333333 3.33333333,8.19341146 3.33333333,8.02083333 L3.33333333,7.8125 C3.33333333,7.63992187 3.47325521,7.5 3.64583333,7.5 L7.60416667,7.5 C7.77674479,7.5 7.91666667,7.63992187 7.91666667,7.8125 L7.91666667,8.02083333 C7.91666667,8.19341146 7.77674479,8.33333333 7.60416667,8.33333333 Z M13.0208333,8.33333333 L9.0625,8.33333333 C8.88992187,8.33333333 8.75,8.19341146 8.75,8.02083333 L8.75,7.8125 C8.75,7.63992187 8.88992187,7.5 9.0625,7.5 L13.0208333,7.5 C13.1934115,7.5 13.3333333,7.63992187 13.3333333,7.8125 L13.3333333,8.02083333 C13.3333333,8.19341146 13.1934115,8.33333333 13.0208333,8.33333333 Z M7.60416667,5.83333333 L3.64583333,5.83333333 C3.47325521,5.83333333 3.33333333,5.69341146 3.33333333,5.52083333 L3.33333333,5.3125 C3.33333333,5.13992187 3.47325521,5 3.64583333,5 L7.60416667,5 C7.77674479,5 7.91666667,5.13992187 7.91666667,5.3125 L7.91666667,5.52083333 C7.91666667,5.69341146 7.77674479,5.83333333 7.60416667,5.83333333 Z M13.0208333,5.83333333 L9.0625,5.83333333 C8.88992187,5.83333333 8.75,5.69341146 8.75,5.52083333 L8.75,5.3125 C8.75,5.13992187 8.88992187,5 9.0625,5 L13.0208333,5 C13.1934115,5 13.3333333,5.13992187 13.3333333,5.3125 L13.3333333,5.52083333 C13.3333333,5.69341146 13.1934115,5.83333333 13.0208333,5.83333333 Z M13.0208333,3.33333333 L3.64583333,3.33333333 C3.47325521,3.33333333 3.33333333,3.19341146 3.33333333,3.02083333 L3.33333333,1.97916667 C3.33333333,1.80658854 3.47325521,1.66666667 3.64583333,1.66666667 L13.0208333,1.66666667 C13.1934115,1.66666667 13.3333333,1.80658854 13.3333333,1.97916667 L13.3333333,3.02083333 C13.3333333,3.19341146 13.1934115,3.33333333 13.0208333,3.33333333 Z" id="Shape"></path>
        </g>
    </g>
</svg>