<?xml version="1.0" encoding="UTF-8"?>
<svg width="24px" height="24px" viewBox="0 0 24 24" version="1.1" xmlns="http://www.w3.org/2000/svg" xmlns:xlink="http://www.w3.org/1999/xlink">
    <!-- Generator: Sketch 61.2 (89653) - https://sketch.com -->
    <title>2 - CHARTE / Icons / default / Niveau</title>
    <desc>Created with Sketch.</desc>
    <g id="2---CHARTE-/-Icons-/-default-/-Niveau" stroke="none" stroke-width="1" fill="none" fill-rule="evenodd">
        <g id="Niveau" transform="translate(4.000000, 4.000000)" fill="#402955">
            <path d="M14.8571429,11.3467659 L14.8571429,4.10978701 C15.5375,3.72716832 16,3.02334315 16,2.20807898 C16,0.988460358 14.9767857,0 13.7142857,0 C12.8703571,0 12.1414286,0.446790982 11.7457143,1.10403949 L4.25428571,1.10403949 C3.85857143,0.446790982 3.12964286,0 2.28571429,0 C1.02321429,0 0,0.988460358 0,2.20807898 C0,3.02334315 0.4625,3.72751333 1.14285714,4.10978701 L1.14285714,11.3464209 C0.4625,11.7290396 0,12.4332097 0,13.2484739 C0,14.4680925 1.02321429,15.4565529 2.28571429,15.4565529 C3.12964286,15.4565529 3.85857143,15.0097619 4.25428571,14.3525134 L11.7453571,14.3525134 C12.1414286,15.0097619 12.87,15.4565529 13.7139286,15.4565529 C14.9764286,15.4565529 15.9996429,14.4680925 15.9996429,13.2484739 C16,12.4332097 15.5375,11.7290396 14.8571429,11.3467659 Z M3.42857143,11.3467659 L3.42857143,4.10978701 C3.77083669,3.91766888 4.05541277,3.64275855 4.25428571,3.31211848 L11.7453571,3.31211848 C11.9442301,3.64275855 12.2288062,3.91766888 12.5710714,4.10978701 L12.5710714,11.3464209 C12.2288062,11.538539 11.9442301,11.8134493 11.7453571,12.1440894 L4.25428571,12.1440894 C4.0553991,11.8135495 3.77081902,11.5387542 3.42857143,11.3467659 L3.42857143,11.3467659 Z M14.2857143,2.20807898 C14.2857143,2.51237987 14.0292857,2.76009873 13.7142857,2.76009873 C13.3992857,2.76009873 13.1428571,2.51237987 13.1428571,2.20807898 C13.1428571,1.9037781 13.3992857,1.65605924 13.7142857,1.65605924 C14.0292857,1.65605924 14.2857143,1.9037781 14.2857143,2.20807898 Z M2.28571429,1.65605924 C2.60071429,1.65605924 2.85714286,1.9037781 2.85714286,2.20807898 C2.85714286,2.51237987 2.60071429,2.76009873 2.28571429,2.76009873 C1.97071429,2.76009873 1.71428571,2.51237987 1.71428571,2.20807898 C1.71428571,1.9037781 1.97071429,1.65605924 2.28571429,1.65605924 Z M1.71428571,13.2484739 C1.71428571,12.944173 1.97071429,12.6964542 2.28571429,12.6964542 C2.60071429,12.6964542 2.85714286,12.944173 2.85714286,13.2484739 C2.85714286,13.5527748 2.60071429,13.8004936 2.28571429,13.8004936 C1.97071429,13.8004936 1.71428571,13.5527748 1.71428571,13.2484739 Z M13.7142857,13.8004936 C13.3992857,13.8004936 13.1428571,13.5527748 13.1428571,13.2484739 C13.1428571,12.944173 13.3992857,12.6964542 13.7142857,12.6964542 C14.0292857,12.6964542 14.2857143,12.944173 14.2857143,13.2484739 C14.2857143,13.5527748 14.0292857,13.8004936 13.7142857,13.8004936 Z" id="Shape"></path>
        </g>
    </g>
</svg>