<?xml version="1.0" encoding="UTF-8"?>
<svg width="24px" height="24px" viewBox="0 0 24 24" version="1.1" xmlns="http://www.w3.org/2000/svg" xmlns:xlink="http://www.w3.org/1999/xlink">
    <!-- Generator: Sketch 61.2 (89653) - https://sketch.com -->
    <title>2 - CHARTE / Icons / default / Parcours</title>
    <desc>Created with Sketch.</desc>
    <g id="2---CHARTE-/-Icons-/-default-/-Parcours" stroke="none" stroke-width="1" fill="none" fill-rule="evenodd">
        <path d="M19.8535142,6.6465625 L18.5000635,5.2928125 C18.3125616,5.1053125 18.0581842,5 17.7928691,5 L13.0000098,5 L13.0000098,4.5 C13.0000098,4.22375 12.7762576,4 12.5000049,4 L11.4999951,4 C11.2237424,4 10.9999902,4.22375 10.9999902,4.5 L10.9999902,5 L5.74993896,5 C5.33587242,5 4.99993164,5.3359375 4.99993164,5.75 L4.99993164,8.25 C4.99993164,8.6640625 5.33587242,9 5.74993896,9 L17.7928691,9 C18.0581842,9 18.3122491,8.8946875 18.5000635,8.7071875 L19.8535142,7.35375 C20.0488286,7.158125 20.0488286,6.841875 19.8535142,6.6465625 Z M10.9999902,19.5 C10.9999902,19.77625 11.2237424,20 11.4999902,20 L12.5000049,20 C12.7762576,20 13.0000098,19.77625 13.0000098,19.5 L13.0000098,16 L10.9999902,16 L10.9999902,19.5 Z M18.250061,11 L13,11 L13,10 L11,10 L11,11 L6.20713093,11 C5.94181584,11 5.68775086,11.1053125 5.49993652,11.2928125 L4.14648581,12.6465625 C3.9511714,12.841875 3.9511714,13.1584375 4.14648581,13.35375 L5.49993652,14.7071875 C5.68743835,14.8946875 5.94181584,15 6.20713093,15 L18.250061,15 C18.6641276,15 19.0000684,14.6640625 19.0000684,14.25 L19.0000684,11.75 C19.0000684,11.3359375 18.6641276,11 18.250061,11 Z" id="Shape" fill="#402955"></path>
    </g>
</svg>