<?xml version="1.0" encoding="UTF-8"?>
<svg width="24px" height="24px" viewBox="0 0 24 24" version="1.1" xmlns="http://www.w3.org/2000/svg" xmlns:xlink="http://www.w3.org/1999/xlink">
    <!-- Generator: Sketch 61.2 (89653) - https://sketch.com -->
    <title>2 - CHARTE / Icons / default / Pause</title>
    <desc>Created with Sketch.</desc>
    <g id="2---CHARTE-/-Icons-/-default-/-Pause" stroke="none" stroke-width="1" fill="none" fill-rule="evenodd">
        <g id="pause" transform="translate(5.000000, 5.000000)" fill="#402955">
            <path d="M4.82142857,15 L1.60714286,15 C0.719866071,15 0,14.2801339 0,13.3928571 L0,1.60714286 C0,0.719866071 0.719866071,0 1.60714286,0 L4.82142857,0 C5.70870536,0 6.42857143,0.719866071 6.42857143,1.60714286 L6.42857143,13.3928571 C6.42857143,14.2801339 5.70870536,15 4.82142857,15 Z M15,13.3928571 L15,1.60714286 C15,0.719866071 14.2801339,0 13.3928571,0 L10.1785714,0 C9.29129464,0 8.57142857,0.719866071 8.57142857,1.60714286 L8.57142857,13.3928571 C8.57142857,14.2801339 9.29129464,15 10.1785714,15 L13.3928571,15 C14.2801339,15 15,14.2801339 15,13.3928571 Z" id="Shape"></path>
        </g>
    </g>
</svg>