<?xml version="1.0" encoding="UTF-8"?>
<svg width="24px" height="24px" viewBox="0 0 24 24" version="1.1" xmlns="http://www.w3.org/2000/svg" xmlns:xlink="http://www.w3.org/1999/xlink">
    <!-- Generator: Sketch 61.2 (89653) - https://sketch.com -->
    <title>2 - CHARTE / Icons / default / phone-laptop</title>
    <desc>Created with Sketch.</desc>
    <g id="2---CHARTE-/-Icons-/-default-/-phone-laptop" stroke="none" stroke-width="1" fill="none" fill-rule="evenodd">
        <g id="phone-laptop" transform="translate(4.000000, 5.500000)" fill="#402955">
            <path d="M15.1,3.25 L10.5,3.25 C10.0029437,3.25 9.6,3.65923972 9.6,4.1640625 L9.6,12.0859375 C9.6,12.5907603 10.0029437,13 10.5,13 L15.1,13 C15.5970563,13 16,12.5907603 16,12.0859375 L16,4.1640625 C16,3.65923972 15.5970563,3.25 15.1,3.25 Z M14.4,11.375 L11.2,11.375 L11.2,4.875 L14.4,4.875 L14.4,11.375 Z M3.2,1.625 L11.2,1.625 L11.2,2.4375 L12.8,2.4375 L12.8,1.21875 C12.7986303,0.547121136 12.2635424,0.0026515689 11.60225,0 L2.79775,0 C2.13645762,0.0026515689 1.60136969,0.547121136 1.6,1.21875 L1.6,7.3125 L0.4,7.3125 C0.1790861,7.3125 0,7.49438432 0,7.71875 L0,8.125 C0.00191946542,9.02076277 0.715771771,9.74678999 1.59775,9.75 L8.8,9.75 L8.8,7.3125 L3.2,7.3125 L3.2,1.625 Z" id="Shape"></path>
        </g>
    </g>
</svg>