<?xml version="1.0" encoding="UTF-8"?>
<svg width="24px" height="24px" viewBox="0 0 24 24" version="1.1" xmlns="http://www.w3.org/2000/svg" xmlns:xlink="http://www.w3.org/1999/xlink">
    <!-- Generator: Sketch 61.2 (89653) - https://sketch.com -->
    <title>2 - CHARTE / Icons / default / phone</title>
    <desc>Created with Sketch.</desc>
    <g id="2---CHARTE-/-Icons-/-default-/-phone" stroke="none" stroke-width="1" fill="none" fill-rule="evenodd">
        <g id="phone-alt" transform="translate(4.000000, 4.000000)" fill="#402955" fill-rule="nonzero">
            <path d="M15.5436248,11.3061916 L12.0435827,9.806173 C11.7364308,9.67527179 11.3797329,9.76317237 11.1685721,10.0218007 L9.61855344,11.9155742 C7.18594335,10.7686217 5.22825132,8.81092893 4.08129921,6.37831798 L5.97507203,4.82829875 C6.23426112,4.61749296 6.32226241,4.26038614 6.19069963,3.9532879 L4.69068155,0.453244475 C4.54570514,0.120860993 4.18490204,-0.0615086383 3.83129619,0.0188640858 L0.581257024,0.76887339 C0.240943957,0.847458878 0,1.1505511 0,1.49981996 C0,9.5155444 6.49695332,16 14.5001748,16 C14.8495604,16.0002239 15.1528219,15.7591698 15.2314336,15.4187426 L15.9814426,12.1687023 C16.0612927,11.8133987 15.8775652,11.4514515 15.5436248,11.3061916 L15.5436248,11.3061916 Z" id="Path"></path>
        </g>
    </g>
</svg>