<?xml version="1.0" encoding="UTF-8"?>
<svg width="24px" height="24px" viewBox="0 0 24 24" version="1.1" xmlns="http://www.w3.org/2000/svg" xmlns:xlink="http://www.w3.org/1999/xlink">
    <!-- Generator: Sketch 61.2 (89653) - https://sketch.com -->
    <title>2 - CHARTE / Icons / default / plane-alt</title>
    <desc>Created with Sketch.</desc>
    <g id="2---CHARTE-/-Icons-/-default-/-plane-alt" stroke="none" stroke-width="1" fill="none" fill-rule="evenodd">
        <g id="plane-alt" transform="translate(2.000000, 4.000000)" fill="#402955">
            <path d="M16.3888889,6.25 L12.0729167,6.25 L10.7326389,4 L11.25,4 C11.4791667,4 11.6666667,3.83125 11.6666667,3.625 L11.6666667,2.375 C11.6666667,2.16875 11.4791667,2 11.25,2 L9.54166667,2 L8.45486111,0.178125 C8.37847222,0.06875 8.24305556,0 8.10069444,0 L6.09375,0 C5.81944444,0 5.62152778,0.23125 5.69097222,0.46875 L6.84722222,6.2625 C5.71527778,6.29375 4.65625,6.378125 3.72569444,6.50625 L2.34375,4.43125 C2.26736111,4.31875 2.13194444,4.25 1.98611111,4.25 L0.506944444,4.25 C0.243055556,4.25 0.0451388889,4.465625 0.0972222222,4.7 L0.673611111,7.2875 C0.239583333,7.503125 0,7.746875 0,8 C0,8.253125 0.239583333,8.496875 0.673611111,8.7125 L0.100694444,11.3 C0.0486111111,11.534375 0.246527778,11.75 0.506944444,11.75 L1.98611111,11.75 C2.13194444,11.75 2.26736111,11.68125 2.34375,11.56875 L3.72569444,9.49375 C4.65625,9.621875 5.71527778,9.70625 6.84722222,9.7375 L5.69097222,15.53125 C5.62152778,15.76875 5.82291667,16 6.09375,16 L8.10069444,16 C8.24652778,16 8.37847222,15.93125 8.45486111,15.821875 L9.54166667,14 L11.25,14 C11.4791667,14 11.6666667,13.83125 11.6666667,13.625 L11.6666667,12.375 C11.6666667,12.16875 11.4791667,12 11.25,12 L10.7326389,12 L12.0729167,9.75 L16.3888889,9.75 C18.3819444,9.75 20,8.965625 20,8 C20,7.034375 18.3819444,6.25 16.3888889,6.25 Z" id="Path"></path>
        </g>
    </g>
</svg>