<?xml version="1.0" encoding="UTF-8"?>
<svg width="24px" height="24px" viewBox="0 0 24 24" version="1.1" xmlns="http://www.w3.org/2000/svg" xmlns:xlink="http://www.w3.org/1999/xlink">
    <!-- Generator: Sketch 61.2 (89653) - https://sketch.com -->
    <title>2 - CHARTE / Icons / default / plus</title>
    <desc>Created with Sketch.</desc>
    <g id="2---CHARTE-/-Icons-/-default-/-plus" stroke="none" stroke-width="1" fill="none" fill-rule="evenodd">
        <g id="plus-solid" transform="translate(5.000000, 5.000000)" fill="#402955">
            <path d="M13,5.5 L8.5,5.5 L8.5,1 C8.5,0.4478125 8.0521875,0 7.5,0 L6.5,0 C5.9478125,0 5.5,0.4478125 5.5,1 L5.5,5.5 L1,5.5 C0.4478125,5.5 0,5.9478125 0,6.5 L0,7.5 C0,8.0521875 0.4478125,8.5 1,8.5 L5.5,8.5 L5.5,13 C5.5,13.5521875 5.9478125,14 6.5,14 L7.5,14 C8.0521875,14 8.5,13.5521875 8.5,13 L8.5,8.5 L13,8.5 C13.5521875,8.5 14,8.0521875 14,7.5 L14,6.5 C14,5.9478125 13.5521875,5.5 13,5.5 Z" id="路径"></path>
        </g>
    </g>
</svg>