<?xml version="1.0" encoding="UTF-8"?>
<svg width="24px" height="24px" viewBox="0 0 24 24" version="1.1" xmlns="http://www.w3.org/2000/svg" xmlns:xlink="http://www.w3.org/1999/xlink">
    <!-- Generator: Sketch 61.2 (89653) - https://sketch.com -->
    <title>2 - CHARTE / Icons / default / Progression</title>
    <desc>Created with Sketch.</desc>
    <g id="2---CHARTE-/-Icons-/-default-/-Progression" stroke="none" stroke-width="1" fill="none" fill-rule="evenodd">
        <g id="Ma-progression" transform="translate(4.000000, 4.000000)" fill="#402955">
            <path d="M16,7.81093181 C16,6.66065005 15.259375,5.67818129 14.215625,5.29678813 C14.675,4.30821707 14.490625,3.10301471 13.65625,2.28835893 C12.821875,1.47370315 11.5875,1.29368558 10.575,1.74220393 C10.184375,0.723121421 9.178125,0 8,0 C6.821875,0 5.815625,0.723121421 5.425,1.74220393 C4.4125,1.29368558 3.175,1.47370315 2.34375,2.28835893 C1.509375,3.10301471 1.325,4.30821707 1.784375,5.29678813 C0.740625,5.67818129 0,6.66065005 0,7.81093181 C0,8.96121356 0.740625,9.94368233 1.784375,10.3250755 C1.325,11.3136465 1.509375,12.5219001 2.34375,13.3335047 C3.175,14.1451093 4.409375,14.3312292 5.425,13.8796597 C5.815625,14.895691 6.821875,15.6218636 8,15.6218636 C9.178125,15.6218636 10.184375,14.8987422 10.575,13.8796597 C11.59375,14.3312292 12.825,14.1451093 13.65625,13.3335047 C14.490625,12.5188489 14.675,11.3136465 14.215625,10.3250755 C15.259375,9.94368233 16,8.96121356 16,7.81093181 Z M11.475,6.46080004 L7.38,10.4269837 C7.2453125,10.5575727 7.0275,10.5566574 6.8940625,10.425153 L4.5278125,8.09621389 C4.3940625,7.96470953 4.395,7.7520447 4.5296875,7.62145569 L5.343125,6.83364999 C5.4778125,6.70306097 5.695625,6.70397631 5.829375,6.83548067 L7.1465625,8.13191229 L10.1840625,5.18999805 C10.31875,5.05940903 10.5365625,5.06032438 10.67,5.19182874 L11.476875,5.98604184 C11.610625,6.11785131 11.61,6.33051614 11.475,6.46080004 Z" id="Shape"></path>
        </g>
    </g>
</svg>