<?xml version="1.0" encoding="UTF-8"?>
<svg width="24px" height="24px" viewBox="0 0 24 24" version="1.1" xmlns="http://www.w3.org/2000/svg" xmlns:xlink="http://www.w3.org/1999/xlink">
    <!-- Generator: Sketch 61.2 (89653) - https://sketch.com -->
    <title>2 - CHARTE / Icons / default / skill</title>
    <desc>Created with Sketch.</desc>
    <g id="2---CHARTE-/-Icons-/-default-/-skill" stroke="none" stroke-width="1" fill="none" fill-rule="evenodd">
        <g id="graduation-cap-solid" transform="translate(2.000000, 5.000000)" fill="#402955">
            <path d="M19.4177847,2.81435257 L10.7145086,0.140405616 C10.2402496,-0.00530421217 9.72854914,-0.00530421217 9.25460218,0.140405616 L0.551014041,2.81435257 C-0.183463339,3.0399376 -0.183463339,4.01123245 0.551014041,4.23681747 L2.06833073,4.70296412 C1.73541342,5.11450858 1.53073323,5.61653666 1.51045242,6.16630265 C1.2099844,6.33853354 0.998439938,6.64929797 0.998439938,7.02028081 C0.998439938,7.35663027 1.17566303,7.63962559 1.43088924,7.82059282 L0.634321373,11.4049922 C0.565054602,11.7166927 0.802184087,12.0124805 1.12137285,12.0124805 L2.87207488,12.0124805 C3.19157566,12.0124805 3.42870515,11.7166927 3.35943838,11.4049922 L2.56287051,7.82059282 C2.81809672,7.63962559 2.99531981,7.35663027 2.99531981,7.02028081 C2.99531981,6.65928237 2.79344774,6.35725429 2.50670827,6.18190328 C2.53042122,5.71326053 2.7700468,5.29890796 3.15226209,5.03619345 L9.25429017,6.91107644 C9.53697348,6.99781591 10.0792512,7.10608424 10.7141966,6.91107644 L19.4177847,4.23712949 C20.1525741,4.01123245 20.1525741,3.04024961 19.4177847,2.81435257 Z M11.0074883,7.86552262 C10.1173167,8.13884555 9.35881435,7.98783151 8.96099844,7.86552262 L4.43619345,6.47550702 L3.99375975,10.0156006 C3.99375975,11.1185647 6.67581903,12.0124805 9.98439938,12.0124805 C13.2929797,12.0124805 15.975039,11.1185647 15.975039,10.0156006 L15.5326053,6.47519501 L11.0074883,7.86552262 Z" id="Shape"></path>
        </g>
    </g>
</svg>