<?xml version="1.0" encoding="UTF-8"?>
<svg width="24px" height="24px" viewBox="0 0 24 24" version="1.1" xmlns="http://www.w3.org/2000/svg" xmlns:xlink="http://www.w3.org/1999/xlink">
    <!-- Generator: Sketch 61.2 (89653) - https://sketch.com -->
    <title>2 - CHARTE / Icons / default / supprimer</title>
    <desc>Created with Sketch.</desc>
    <g id="2---CHARTE-/-Icons-/-default-/-supprimer" stroke="none" stroke-width="1" fill="none" fill-rule="evenodd">
        <g id="trash-alt-regular" transform="translate(5.000000, 4.000000)" fill="#402955">
            <path d="M8.20408163,13 L8.93877551,13 C9.14165562,13 9.30612245,12.8321068 9.30612245,12.625 L9.30612245,5.875 C9.30612245,5.66789322 9.14165562,5.5 8.93877551,5.5 L8.20408163,5.5 C8.00120152,5.5 7.83673469,5.66789322 7.83673469,5.875 L7.83673469,12.625 C7.83673469,12.8321068 8.00120152,13 8.20408163,13 Z M13.2244898,2.49999983 L10.7017347,2.49999983 L9.66091837,0.728125 C9.39521983,0.276172962 8.91664342,-0.000251015905 8.40030612,-1.70811791e-07 L5.31397959,-1.70811791e-07 C4.79786052,-1.70811791e-07 4.31956586,0.276364062 4.05397959,0.728125 L3.01255102,2.49999983 L0.489795918,2.49999983 C0.219289102,2.49999983 0,2.72385763 0,2.99999983 L0,3.49999983 C0,3.77614237 0.219289102,3.99999983 0.489795918,3.99999983 L0.979591837,3.99999983 L0.979591837,14.4999998 C0.979591837,15.3284271 1.63745914,15.9999998 2.44897959,15.9999998 L11.2653061,15.9999998 C12.0768266,15.9999998 12.7346939,15.3284271 12.7346939,14.4999998 L12.7346939,3.99999983 L13.2244898,3.99999983 C13.4949966,3.99999983 13.7142857,3.77614237 13.7142857,3.49999983 L13.7142857,2.99999983 C13.7142857,2.72385763 13.4949966,2.49999983 13.2244898,2.49999983 Z M5.26040816,1.5909375 C5.29370951,1.53435384 5.35370431,1.49981468 5.41836735,1.49999926 L8.29591837,1.49999926 C8.36047236,1.49992469 8.42032614,1.53444958 8.45357143,1.5909375 L8.98806122,2.49999926 L4.72622449,2.49999926 L5.26040816,1.5909375 Z M11.2653061,14.5 L2.44897959,14.5 L2.44897959,4 L11.2653061,4 L11.2653061,14.5 Z M4.7755102,13 L5.51020408,13 C5.71308419,13 5.87755102,12.8321068 5.87755102,12.625 L5.87755102,5.875 C5.87755102,5.66789322 5.71308419,5.5 5.51020408,5.5 L4.7755102,5.5 C4.57263009,5.5 4.40816327,5.66789322 4.40816327,5.875 L4.40816327,12.625 C4.40816327,12.8321068 4.57263009,13 4.7755102,13 Z" id="形状"></path>
        </g>
    </g>
</svg>