<?xml version="1.0" encoding="UTF-8"?>
<svg width="24px" height="24px" viewBox="0 0 24 24" version="1.1" xmlns="http://www.w3.org/2000/svg" xmlns:xlink="http://www.w3.org/1999/xlink">
    <!-- Generator: Sketch 61.2 (89653) - https://sketch.com -->
    <title>2 - CHARTE / Icons / default / tableau</title>
    <desc>Created with Sketch.</desc>
    <g id="2---CHARTE-/-Icons-/-default-/-tableau" stroke="none" stroke-width="1" fill="none" fill-rule="evenodd">
        <g id="align-justify-solid" transform="translate(5.000000, 5.000000)" fill="#402955">
            <path d="M13.5,12 L0.5,12 C0.223857625,12 0,12.2238576 0,12.5 L0,13.5 C0,13.7761424 0.223857625,14 0.5,14 L13.5,14 C13.7761424,14 14,13.7761424 14,13.5 L14,12.5 C14,12.2238576 13.7761424,12 13.5,12 Z M13.5,8 L0.5,8 C0.223857625,8 0,8.22385763 0,8.5 L0,9.5 C0,9.77614237 0.223857625,10 0.5,10 L13.5,10 C13.7761424,10 14,9.77614237 14,9.5 L14,8.5 C14,8.22385763 13.7761424,8 13.5,8 Z M13.5,4 L0.5,4 C0.223857625,4 0,4.22385763 0,4.5 L0,5.5 C0,5.77614237 0.223857625,6 0.5,6 L13.5,6 C13.7761424,6 14,5.77614237 14,5.5 L14,4.5 C14,4.22385763 13.7761424,4 13.5,4 Z M13.5,0 L0.5,0 C0.223857625,0 0,0.223857625 0,0.5 L0,1.5 C0,1.77614237 0.223857625,2 0.5,2 L13.5,2 C13.7761424,2 14,1.77614237 14,1.5 L14,0.5 C14,0.223857625 13.7761424,0 13.5,0 Z" id="形状"></path>
        </g>
    </g>
</svg>