<?xml version="1.0" encoding="UTF-8"?>
<svg width="24px" height="24px" viewBox="0 0 24 24" version="1.1" xmlns="http://www.w3.org/2000/svg" xmlns:xlink="http://www.w3.org/1999/xlink">
    <!-- Generator: Sketch 61.2 (89653) - https://sketch.com -->
    <title>2 - CHARTE / Icons / default / Theme</title>
    <desc>Created with Sketch.</desc>
    <g id="2---CHARTE-/-Icons-/-default-/-Theme" stroke="none" stroke-width="1" fill="none" fill-rule="evenodd">
        <g id="Mes-thèmes" transform="translate(3.000000, 6.000000)" fill="#402955">
            <path d="M18,0.375142991 L18,11.6234802 C18,11.8296998 17.8101563,11.9984248 17.578125,11.9984248 L16.171875,11.9984248 C15.9398437,11.9984248 15.75,11.8296998 15.75,11.6234802 L15.75,6.87730683 L9.72070312,11.767209 C8.99648437,12.3046296 7.875,11.8546961 7.875,10.9985726 L7.875,6.87730683 L1.84570312,11.767209 C1.12148437,12.3046296 0,11.8546961 0,10.9985726 L0,1.00005062 C0,0.14392717 1.12148437,-0.302881782 1.84570312,0.231414237 L7.875,5.08694649 L7.875,1.00005062 C7.875,0.14392717 8.99648437,-0.302881782 9.72070312,0.231414237 L15.75,5.08694649 L15.75,0.375142991 C15.75,0.168923475 15.9398437,0.000198416024 16.171875,0.000198416024 L17.578125,0.000198416024 C17.8101563,0.000198416024 18,0.168923475 18,0.375142991 Z" id="Path"></path>
        </g>
    </g>
</svg>