<?xml version="1.0" encoding="UTF-8"?>
<svg width="24px" height="24px" viewBox="0 0 24 24" version="1.1" xmlns="http://www.w3.org/2000/svg" xmlns:xlink="http://www.w3.org/1999/xlink">
    <!-- Generator: Sketch 61.2 (89653) - https://sketch.com -->
    <title>2 - CHARTE / Icons / default / Time</title>
    <desc>Created with Sketch.</desc>
    <g id="2---CHARTE-/-Icons-/-default-/-Time" stroke="none" stroke-width="1" fill="none" fill-rule="evenodd">
        <g id="clock" transform="translate(4.000000, 4.000000)" fill="#402955">
            <path d="M8,0 C3.58064516,0 0,3.58064516 0,8 C0,12.4193548 3.58064516,16 8,16 C12.4193548,16 16,12.4193548 16,8 C16,3.58064516 12.4193548,0 8,0 Z M9.84193548,11.2935484 L6.99677419,9.22580645 C6.89677419,9.1516129 6.83870968,9.03548387 6.83870968,8.91290323 L6.83870968,3.48387097 C6.83870968,3.27096774 7.01290323,3.09677419 7.22580645,3.09677419 L8.77419355,3.09677419 C8.98709677,3.09677419 9.16129032,3.27096774 9.16129032,3.48387097 L9.16129032,7.92580645 L11.2096774,9.41612903 C11.383871,9.54193548 11.4193548,9.78387097 11.2935484,9.95806452 L10.383871,11.2096774 C10.2580645,11.3806452 10.016129,11.4193548 9.84193548,11.2935484 Z" id="Shape"></path>
        </g>
    </g>
</svg>