<?xml version="1.0" encoding="UTF-8"?>
<svg width="24px" height="24px" viewBox="0 0 24 24" version="1.1" xmlns="http://www.w3.org/2000/svg" xmlns:xlink="http://www.w3.org/1999/xlink">
    <!-- Generator: Sketch 61.2 (89653) - https://sketch.com -->
    <title>2 - CHARTE / Icons / default / trad</title>
    <desc>Created with Sketch.</desc>
    <g id="2---CHARTE-/-Icons-/-default-/-trad" stroke="none" stroke-width="1" fill="none" fill-rule="evenodd">
        <g id="globe-americas-solid" transform="translate(4.000000, 4.000000)" fill="#402955">
            <path d="M8,0 C3.5816129,0 0,3.5816129 0,8 C0,12.4183871 3.5816129,16 8,16 C12.4183871,16 16,12.4183871 16,8 C16,3.5816129 12.4183871,0 8,0 Z M10.6545161,11.5354839 C10.5287097,11.6606452 10.3967742,11.7919355 10.2896774,11.8993548 C10.1932258,11.996129 10.1251613,12.1154839 10.0906452,12.2448387 C10.0419355,12.4274194 10.0025806,12.6119355 9.93677419,12.7890323 L9.37580645,14.3003226 C8.93193548,14.3970968 8.47258065,14.4516129 8,14.4516129 L8,13.5683871 C8.05451613,13.1612903 7.75354839,12.3987097 7.27,11.9151613 C7.07645161,11.7216129 6.96774194,11.4590323 6.96774194,11.1851613 L6.96774194,10.1525806 C6.96774194,9.77709677 6.76548387,9.43193548 6.43677419,9.25032258 C5.97322581,8.99387097 5.31387097,8.63548387 4.86225806,8.40806452 C4.49193548,8.2216129 4.14935484,7.98419355 3.84129032,7.70645161 L3.81548387,7.68322581 C3.59518173,7.48436669 3.39958487,7.25974438 3.23290323,7.01419355 C2.93032258,6.57 2.43741935,5.83935484 2.11709677,5.36451613 C2.77741935,3.89677419 3.96741935,2.71806452 5.44612903,2.07774194 L6.22064516,2.46516129 C6.56387097,2.63677419 6.96774194,2.38741935 6.96774194,2.00354839 L6.96774194,1.63903226 C7.22548387,1.59741935 7.48774194,1.57096774 7.75451613,1.56096774 L8.66741935,2.47387097 C8.86903226,2.67548387 8.86903226,3.00225806 8.66741935,3.20387097 L8.51612903,3.35483871 L8.18258065,3.6883871 C8.08193548,3.78903226 8.08193548,3.95258065 8.18258065,4.05322581 L8.33387097,4.20451613 C8.43451613,4.30516129 8.43451613,4.46870968 8.33387097,4.56935484 L8.07580645,4.82741935 C8.02735246,4.87577947 7.96168375,4.90292872 7.89322581,4.90290323 L7.60322581,4.90290323 C7.53612903,4.90290323 7.4716129,4.92903226 7.42322581,4.97612903 L7.10322581,5.28741935 C7.02274083,5.36579451 7.00213683,5.48720161 7.05225806,5.58774194 L7.55516129,6.59387097 C7.64096774,6.76548387 7.51612903,6.96741935 7.32451613,6.96741935 L7.14258065,6.96741935 C7.08032258,6.96741935 7.02032258,6.94483871 6.97354839,6.90419355 L6.67419355,6.64419355 C6.53637402,6.52463136 6.34571305,6.48662178 6.17258065,6.54419355 L5.16709677,6.87935484 C5.00966477,6.9318488 4.90349848,7.07920813 4.90354839,7.24516129 C4.90354839,7.39129032 4.98612903,7.52451613 5.11677419,7.59 L5.47419355,7.76870968 C5.77774194,7.92064516 6.11258065,7.99967742 6.45193548,7.99967742 C6.79129032,7.99967742 7.18064516,8.88 7.48419355,9.03193548 L9.63741935,9.03193548 C9.91129032,9.03193548 10.1735484,9.14064516 10.3674194,9.33419355 L10.8090323,9.77580645 C10.9935221,9.96036683 11.0970968,10.210655 11.0970968,10.4716129 C11.0969629,10.870991 10.9376887,11.2538526 10.6545161,11.5354839 Z M13.4516129,8.58870968 C13.2648387,8.54193548 13.1019355,8.42741935 12.9951613,8.26709677 L12.4151613,7.39709677 C12.2416135,7.1371661 12.2416135,6.79831777 12.4151613,6.5383871 L13.0470968,5.59064516 C13.1219355,5.47870968 13.2245161,5.38774194 13.3451613,5.32774194 L13.763871,5.1183871 C14.2,5.98677419 14.4516129,6.96354839 14.4516129,8 C14.4516129,8.27967742 14.4277419,8.55354839 14.3929032,8.82387097 L13.4516129,8.58870968 Z" id="Shape"></path>
        </g>
    </g>
</svg>