<?xml version="1.0" encoding="UTF-8"?>
<svg width="24px" height="24px" viewBox="0 0 24 24" version="1.1" xmlns="http://www.w3.org/2000/svg" xmlns:xlink="http://www.w3.org/1999/xlink">
    <!-- Generator: Sketch 61.2 (89653) - https://sketch.com -->
    <title>2 - CHARTE / Icons / default / user-friends</title>
    <desc>Created with Sketch.</desc>
    <g id="2---CHARTE-/-Icons-/-default-/-user-friends" stroke="none" stroke-width="1" fill="none" fill-rule="evenodd">
        <g id="user-friends" transform="translate(4.000000, 6.000000)" fill="#402955">
            <path d="M4.8,6 C6.3475,6 7.6,4.65803571 7.6,3 C7.6,1.34196429 6.3475,0 4.8,0 C3.2525,0 2,1.34196429 2,3 C2,4.65803571 3.2525,6 4.8,6 Z M6.72,6.85714286 L6.5125,6.85714286 C5.9925,7.125 5.415,7.28571429 4.8,7.28571429 C4.185,7.28571429 3.61,7.125 3.0875,6.85714286 L2.88,6.85714286 C1.29,6.85714286 0,8.23928571 0,9.94285714 L0,10.7142857 C0,11.4241071 0.5375,12 1.2,12 L8.4,12 C9.0625,12 9.6,11.4241071 9.6,10.7142857 L9.6,9.94285714 C9.6,8.23928571 8.31,6.85714286 6.72,6.85714286 Z M12,6 C13.325,6 14.4,4.84821429 14.4,3.42857143 C14.4,2.00892857 13.325,0.857142857 12,0.857142857 C10.675,0.857142857 9.6,2.00892857 9.6,3.42857143 C9.6,4.84821429 10.675,6 12,6 Z M13.2,6.85714286 L13.105,6.85714286 C12.7575,6.98571429 12.39,7.07142857 12,7.07142857 C11.61,7.07142857 11.2425,6.98571429 10.895,6.85714286 L10.8,6.85714286 C10.29,6.85714286 9.82,7.01517857 9.4075,7.26964286 C10.0175,7.97410714 10.4,8.90892857 10.4,9.94285714 L10.4,10.9714286 C10.4,11.0303571 10.3875,11.0866071 10.385,11.1428571 L14.8,11.1428571 C15.4625,11.1428571 16,10.5669643 16,9.85714286 C16,8.19910714 14.7475,6.85714286 13.2,6.85714286 L13.2,6.85714286 Z" id="Shape"></path>
        </g>
    </g>
</svg>