<?xml version="1.0" encoding="UTF-8"?>
<svg width="24px" height="24px" viewBox="0 0 24 24" version="1.1" xmlns="http://www.w3.org/2000/svg" xmlns:xlink="http://www.w3.org/1999/xlink">
    <!-- Generator: Sketch 61.2 (89653) - https://sketch.com -->
    <title>2 - CHARTE / Icons / default / users</title>
    <desc>Created with Sketch.</desc>
    <g id="2---CHARTE-/-Icons-/-default-/-users" stroke="none" stroke-width="1" fill="none" fill-rule="evenodd">
        <g id="users" transform="translate(4.000000, 6.500000)" fill="#402955">
            <path d="M2.4,4.71428571 C3.2825,4.71428571 4,4.00959821 4,3.14285714 C4,2.27611607 3.2825,1.57142857 2.4,1.57142857 C1.5175,1.57142857 0.8,2.27611607 0.8,3.14285714 C0.8,4.00959821 1.5175,4.71428571 2.4,4.71428571 Z M13.6,4.71428571 C14.4825,4.71428571 15.2,4.00959821 15.2,3.14285714 C15.2,2.27611607 14.4825,1.57142857 13.6,1.57142857 C12.7175,1.57142857 12,2.27611607 12,3.14285714 C12,4.00959821 12.7175,4.71428571 13.6,4.71428571 Z M14.4,5.5 L12.8,5.5 C12.36,5.5 11.9625,5.67433036 11.6725,5.95669643 C12.68,6.49933036 13.395,7.47901786 13.55,8.64285714 L15.2,8.64285714 C15.6425,8.64285714 16,8.29174107 16,7.85714286 L16,7.07142857 C16,6.2046875 15.2825,5.5 14.4,5.5 Z M8,5.5 C9.5475,5.5 10.8,4.26986607 10.8,2.75 C10.8,1.23013393 9.5475,0 8,0 C6.4525,0 5.2,1.23013393 5.2,2.75 C5.2,4.26986607 6.4525,5.5 8,5.5 Z M9.92,6.28571429 L9.7125,6.28571429 C9.1925,6.53125 8.615,6.67857143 8,6.67857143 C7.385,6.67857143 6.81,6.53125 6.2875,6.28571429 L6.08,6.28571429 C4.49,6.28571429 3.2,7.55267857 3.2,9.11428571 L3.2,9.82142857 C3.2,10.4720982 3.7375,11 4.4,11 L11.6,11 C12.2625,11 12.8,10.4720982 12.8,9.82142857 L12.8,9.11428571 C12.8,7.55267857 11.51,6.28571429 9.92,6.28571429 Z M4.3275,5.95669643 C4.0375,5.67433036 3.64,5.5 3.2,5.5 L1.6,5.5 C0.7175,5.5 0,6.2046875 0,7.07142857 L0,7.85714286 C0,8.29174107 0.3575,8.64285714 0.8,8.64285714 L2.4475,8.64285714 C2.605,7.47901786 3.32,6.49933036 4.3275,5.95669643 Z" id="Shape"></path>
        </g>
    </g>
</svg>