<?xml version="1.0" encoding="UTF-8"?>
<svg width="24px" height="24px" viewBox="0 0 24 24" version="1.1" xmlns="http://www.w3.org/2000/svg" xmlns:xlink="http://www.w3.org/1999/xlink">
    <!-- Generator: Sketch 61.2 (89653) - https://sketch.com -->
    <title>2 - CHARTE / Icons / default / user</title>
    <desc>Created with Sketch.</desc>
    <g id="2---CHARTE-/-Icons-/-default-/-user" stroke="none" stroke-width="1" fill="none" fill-rule="evenodd">
        <g id="user-solid" transform="translate(5.000000, 4.000000)" fill="#402955">
            <path d="M7,8 C9.209375,8 11,6.209375 11,4 C11,1.790625 9.209375,0 7,0 C4.790625,0 3,1.790625 3,4 C3,6.209375 4.790625,8 7,8 Z M9.8,9 L9.278125,9 C8.584375,9.31875 7.8125,9.5 7,9.5 C6.1875,9.5 5.41875,9.31875 4.721875,9 L4.2,9 C1.88125,9 0,10.88125 0,13.2 L0,14.5 C0,15.328125 0.671875,16 1.5,16 L12.5,16 C13.328125,16 14,15.328125 14,14.5 L14,13.2 C14,10.88125 12.11875,9 9.8,9 Z" id="Shape"></path>
        </g>
    </g>
</svg>