<?xml version="1.0" encoding="UTF-8"?>
<svg width="24px" height="24px" viewBox="0 0 24 24" version="1.1" xmlns="http://www.w3.org/2000/svg" xmlns:xlink="http://www.w3.org/1999/xlink">
    <!-- Generator: Sketch 61.2 (89653) - https://sketch.com -->
    <title>2 - CHARTE / Icons / default / view</title>
    <desc>Created with Sketch.</desc>
    <g id="2---CHARTE-/-Icons-/-default-/-view" stroke="none" stroke-width="1" fill="none" fill-rule="evenodd">
        <g id="eye-solid" transform="translate(4.000000, 7.000000)" fill="#402955">
            <path d="M15.9033333,4.92777778 C14.3969444,1.98861111 11.4147222,0 8,0 C4.58527778,0 1.60222222,1.99 0.0966666667,4.92805556 C-0.0322019688,5.18297217 -0.0322019688,5.48397228 0.0966666667,5.73888889 C1.60305556,8.67805556 4.58527778,10.6666667 8,10.6666667 C11.4147222,10.6666667 14.3977778,8.67666667 15.9033333,5.73861111 C16.032202,5.4836945 16.032202,5.18269439 15.9033333,4.92777778 Z M8,9.33333333 C5.790861,9.33333333 4,7.54247233 4,5.33333333 C4,3.12419433 5.790861,1.33333333 8,1.33333333 C10.209139,1.33333333 12,3.12419433 12,5.33333333 C12.0005162,6.39435744 11.5792545,7.41207302 10.8289971,8.16233045 C10.0787397,8.91258788 9.06102411,9.33384949 8,9.33333333 L8,9.33333333 Z M8,2.66665923 C7.76198096,2.66999308 7.52549774,2.70540483 7.29694444,2.77194444 C7.68625718,3.3010055 7.6307227,4.03511039 7.16624988,4.49958321 C6.70177706,4.96405603 5.96767216,5.01959051 5.43861111,4.63027778 C5.13967936,5.73160043 5.57638047,6.90090481 6.52405835,7.53665509 C7.47173623,8.17240538 8.71930481,8.13299435 9.62496611,7.43869658 C10.5306274,6.74439881 10.8926542,5.5498624 10.5248056,4.46960351 C10.1569571,3.38934463 9.14116807,2.66398046 8,2.66665923 L8,2.66665923 Z" id="Shape"></path>
        </g>
    </g>
</svg>