<?xml version="1.0" encoding="UTF-8"?>
<svg width="226px" height="77px" viewBox="0 0 226 77" version="1.1" xmlns="http://www.w3.org/2000/svg" xmlns:xlink="http://www.w3.org/1999/xlink">
    <!-- Generator: Sketch 61.2 (89653) - https://sketch.com -->
    <title>2 - CHARTE / Logo/ Baseline / Langoost white</title>
    <desc>Created with Sketch.</desc>
    <defs>
        <polygon id="path-1" points="0.00990922401 0.0217545064 18.9000281 0.0217545064 18.9000281 50.4365047 0.00990922401 50.4365047"></polygon>
    </defs>
    <g id="2---CHARTE-/-Logo/-Baseline-/-Langoost-white" stroke="none" stroke-width="1" fill="none" fill-rule="evenodd">
        <g id="Group-4">
            <g id="Group-2">
                <g id="Group">
                    <g id="Group-3" transform="translate(0.000000, 0.774757)">
                        <mask id="mask-2" fill="white">
                            <use xlink:href="#path-1"></use>
                        </mask>
                        <g id="Clip-2"></g>
                        <polyline id="Fill-1" fill="#FFFFFF" mask="url(#mask-2)" points="0 50.4365047 0 0.0217545064 7.28740849 0.0217545064 7.28740849 43.267406 18.9000281 43.267406 18.9000281 50.4365047 0 50.4365047"></polyline>
                    </g>
                    <path d="M38.0431625,33.326915 L35.2619736,12.3593614 L32.4809499,33.326915 L38.0431625,33.326915 Z M45.4075327,33.326915 L47.7763327,51.2112618 L40.4117974,51.2112618 L38.9956041,40.5215588 L31.553942,40.5215588 L30.1123151,51.2112618 L22.7733786,51.2112618 L25.1425089,33.4045391 L30.2923327,0.796511588 L40.2834729,0.796511588 L45.4075327,33.326915 L45.4075327,33.326915 Z" id="Fill-4" fill="#FFFFFF"></path>
                    <polyline id="Fill-5" fill="#FFFFFF" points="51.5373786 0.796511588 58.8241265 0.796511588 65.7250753 30.0376996 65.7250753 0.796511588 72.4714401 0.796511588 72.4714401 51.2112618 65.1843619 51.2112618 58.541053 22.8948052 58.541053 51.2112618 51.5373786 51.2112618 51.5373786 0.796511588"></polyline>
                    <path d="M99.2899291,41.4210747 C99.2899291,48.4785991 95.7964322,52.0163433 88.8096035,52.0334833 C81.8399508,52.0334833 78.3553722,48.4965631 78.3553722,41.4210747 L78.3553722,10.5866987 C78.3553722,3.52933906 81.8399508,5.68434189e-14 88.8096035,5.68434189e-14 C95.7964322,5.68434189e-14 99.2899291,3.52933906 99.2899291,10.5866987 L99.2899291,17.3703142 L92.0025206,17.3703142 L92.0025206,10.5866987 C92.0025206,8.3255485 90.9466928,7.18607382 88.8352023,7.16909871 L88.7841698,7.16909871 C86.689525,7.16909871 85.6422852,8.30857339 85.6422852,10.5866987 L85.6422852,41.4210747 C85.6422852,43.6992 86.698113,44.8388395 88.8096035,44.8388395 C90.9377745,44.8388395 92.0025206,43.6992 92.0025206,41.4210747 L92.0025206,29.6011262 L88.3205833,29.6011262 L88.3205833,22.4066472 L99.2899291,22.4066472 L99.2899291,41.4210747" id="Fill-6" fill="#FFFFFF"></path>
                    <path d="M180.570835,10.5866987 C180.570835,3.52933906 184.055578,5.68434189e-14 191.026717,5.68434189e-14 C198.01272,5.68434189e-14 201.505722,3.52933906 201.505722,10.5866987 L201.505722,17.3703142 L194.219139,17.3703142 L194.219139,10.5866987 C194.219139,8.3255485 193.163807,7.18607382 191.05149,7.16909871 L191.000293,7.16909871 C188.904492,7.16909871 187.859069,8.30857339 187.859069,10.5866987 L187.859069,15.1600893 C187.859069,17.4042644 190.133236,20.154067 194.683221,23.4083433 C199.231555,26.6464687 201.505722,30.5263519 201.505722,35.0486524 L201.505722,41.4210747 C201.505722,48.4965631 198.020978,52.0334833 191.05149,52.0334833 C184.065488,52.0163433 180.570835,48.4785991 180.570835,41.4210747 L180.570835,34.637624 L187.859069,34.637624 L187.859069,41.4210747 C187.859069,43.6992 188.922659,44.8388395 191.05149,44.8388395 C193.163807,44.8388395 194.219139,43.6992 194.219139,41.4210747 L194.219139,35.6656893 C194.219139,33.2334695 191.943321,30.3892326 187.394987,27.1341322 C182.846653,23.8968309 180.570835,19.9569579 180.570835,15.3141837 L180.570835,10.5866987" id="Fill-7" fill="#FFFFFF"></path>
                    <polygon id="Fill-8" fill="#FFFFFF" points="225.51412 7.9656103 218.689968 7.9656103 218.689968 51.2112618 211.403385 51.2112618 211.403385 7.9656103 204.579233 7.9656103 204.579233 0.796511588 225.51412 0.796511588"></polygon>
                    <path d="M119.213415,17.5814318 C114.565493,17.5814318 110.784464,21.3545202 110.784464,25.9923502 C110.784464,30.6300155 114.565493,34.4031039 119.213415,34.4031039 C123.860676,34.4031039 127.641705,30.6300155 127.641705,25.9923502 C127.641705,21.3545202 123.860676,17.5814318 119.213415,17.5814318 Z M119.213415,41.6598798 C110.555726,41.6598798 103.512249,34.6313614 103.512249,25.9923502 C103.512249,17.3530094 110.555726,10.3246558 119.213415,10.3246558 C127.870774,10.3246558 134.913755,17.3530094 134.913755,25.9923502 C134.913755,34.6313614 127.870774,41.6598798 119.213415,41.6598798 L119.213415,41.6598798 Z" id="Fill-9" fill="#FE6C35"></path>
                    <path d="M158.014798,12.6570026 C150.64663,12.6570026 144.651714,18.639327 144.651714,25.9923502 C144.651714,33.3453734 150.64663,39.3276979 158.014798,39.3276979 C165.383297,39.3276979 171.378378,33.3453734 171.378378,25.9923502 C171.378378,18.639327 165.383297,12.6570026 158.014798,12.6570026 Z M158.014798,46.5844738 C146.636367,46.5844738 137.3795,37.3468841 137.3795,25.9923502 C137.3795,14.6378163 146.636367,5.40022661 158.014798,5.40022661 C169.39323,5.40022661 178.650097,14.6378163 178.650097,25.9923502 C178.650097,37.3468841 169.39323,46.5844738 158.014798,46.5844738 L158.014798,46.5844738 Z" id="Fill-10" fill="#FE6C35"></path>
                    <polyline id="Fill-11" fill="#FFFFFF" points="5.49070102 72.6486798 5.49070102 76.5669631 3.83668638 76.5669631 3.83668638 72.6420876 0.319407321 66.7883124 2.05732006 66.7883124 4.67319004 71.1631107 7.29814348 66.7883124 9.03605622 66.7883124 5.49070102 72.6486798"></polyline>
                    <path d="M20.8622196,71.6773082 C20.8622196,69.6587536 19.3570085,68.1487931 17.3363526,68.1487931 C15.3155315,68.1487931 13.802393,69.6727622 13.802393,71.6773082 C13.802393,73.6820189 15.3155315,75.2058232 17.3363526,75.2058232 C19.3570085,75.2058232 20.8622196,73.6960275 20.8622196,71.6773082 Z M17.3363526,76.7503931 C14.3604474,76.7503931 12.1663801,74.5729648 12.1663801,71.6773082 C12.1663801,68.7816515 14.3604474,66.604388 17.3363526,66.604388 C20.3081288,66.604388 22.4980673,68.7776961 22.4980673,71.677473 C22.4980673,74.5774146 20.3081288,76.7505579 17.3363526,76.7505579 L17.3363526,76.7503931 L17.3363526,76.7503931 Z" id="Fill-12" fill="#FFFFFF"></path>
                    <path d="M27.1910758,72.9089099 L27.1910758,66.7883124 L28.809087,66.7883124 L28.809087,72.8111794 C28.809087,74.2550524 29.7701165,75.2061528 31.1291666,75.2061528 C32.4781423,75.2061528 33.439337,74.2550524 33.439337,72.8111794 L33.439337,66.7883124 L35.0573482,66.7883124 L35.0573482,72.9089099 C35.0573482,75.164127 33.3772392,76.7505579 31.1291666,76.7505579 C28.8711848,76.7505579 27.1910758,75.164127 27.1910758,72.9089099" id="Fill-13" fill="#FFFFFF"></path>
                    <path d="M41.995952,71.4455897 L44.1081031,71.4455897 C45.1731795,71.4455897 45.8584023,70.7875159 45.8584023,69.8682232 C45.8584023,68.9589837 45.1731795,68.2908567 44.1081031,68.2908567 L41.995952,68.2908567 L41.995952,71.4455897 Z M43.8544269,72.9479691 L41.995952,72.9479691 L41.995952,76.5669631 L40.3878501,76.5669631 L40.3878501,66.7883124 L44.2020755,66.7883124 C46.0902782,66.7883124 47.4945804,68.0777614 47.4945804,69.8822318 C47.4945804,71.2155193 46.6998606,72.2780292 45.5020006,72.7225133 L47.7647719,76.5669631 L45.9606325,76.5669631 L43.8544269,72.9479691 L43.8544269,72.9479691 Z" id="Fill-14" fill="#FFFFFF"></path>
                    <polyline id="Fill-15" fill="#FFFFFF" points="64.5886524 75.0703519 64.5886524 76.5669631 58.9081898 76.5669631 58.9081898 66.7883124 60.5162917 66.7883124 60.5162917 75.0703519 64.5886524 75.0703519"></polyline>
                    <path d="M71.1089218,73.0021906 L74.3629458,73.0021906 L72.7242905,68.8787227 L71.1089218,73.0021906 Z M74.922817,74.4386472 L70.5533447,74.4386472 L69.7196486,76.5669631 L68.0117939,76.5669631 L71.9488937,66.7883124 L73.460711,66.7883124 L77.5140791,76.5669631 L75.7700556,76.5669631 L74.922817,74.4386472 L74.922817,74.4386472 Z" id="Fill-16" fill="#FFFFFF"></path>
                    <polyline id="Fill-17" fill="#FFFFFF" points="89.9106835 66.7883124 89.9106835 76.5669631 88.5610471 76.5669631 83.4701833 69.5844258 83.4701833 76.5669631 81.8941212 76.5669631 81.8941212 66.7883124 83.3479695 66.7883124 88.3347865 73.6556498 88.3347865 66.7883124 89.9106835 66.7883124"></polyline>
                    <path d="M104.683024,71.6013322 C104.643057,74.5991691 102.6153,76.7507227 99.7371654,76.7507227 C96.8534161,76.7507227 94.7214466,74.6054318 94.7214466,71.6815931 C94.7214466,68.7679725 96.8332673,66.6144412 99.7051256,66.6144412 C102.09523,66.6144412 104.095077,68.1155021 104.537194,70.242994 L102.87905,70.242994 C102.459064,68.9866712 101.214135,68.1669219 99.7371654,68.1669219 C97.7563116,68.1669219 96.3572943,69.6170575 96.3572943,71.6814283 C96.3572943,73.7579948 97.7184914,75.1980773 99.7371654,75.1980773 C101.301336,75.1980773 102.572855,74.3165253 102.939001,72.9870283 L99.4456691,72.9870283 L99.4456691,71.6011674 L104.683024,71.6013322" id="Fill-18" fill="#FFFFFF"></path>
                    <path d="M109.349939,72.9089099 L109.349939,66.7883124 L110.96795,66.7883124 L110.96795,72.8111794 C110.96795,74.2550524 111.929144,75.2061528 113.288029,75.2061528 C114.637005,75.2061528 115.598365,74.2550524 115.598365,72.8111794 L115.598365,66.7883124 L117.216376,66.7883124 L117.216376,72.9089099 C117.216376,75.164127 115.536102,76.7505579 113.288029,76.7505579 C111.030047,76.7505579 109.349939,75.164127 109.349939,72.9089099" id="Fill-19" fill="#FFFFFF"></path>
                    <path d="M124.220546,73.0021906 L127.474735,73.0021906 L125.835914,68.8787227 L124.220546,73.0021906 Z M128.034606,74.4386472 L123.665134,74.4386472 L122.831438,76.5669631 L121.123418,76.5669631 L125.060683,66.7883124 L126.5725,66.7883124 L130.625868,76.5669631 L128.881845,76.5669631 L128.034606,74.4386472 L128.034606,74.4386472 Z" id="Fill-20" fill="#FFFFFF"></path>
                    <path d="M143.978052,71.6013322 C143.93825,74.5991691 141.910327,76.7507227 139.032358,76.7507227 C136.148609,76.7507227 134.016474,74.6054318 134.016474,71.6815931 C134.016474,68.7679725 136.12846,66.6144412 139.000153,66.6144412 C141.390258,66.6144412 143.390105,68.1155021 143.832221,70.242994 L142.174243,70.242994 C141.754257,68.9866712 140.509163,68.1669219 139.032358,68.1669219 C137.051339,68.1669219 135.652487,69.6170575 135.652487,71.6814283 C135.652487,73.7579948 137.013519,75.1980773 139.032358,75.1980773 C140.596364,75.1980773 141.867883,74.3165253 142.233864,72.9870283 L138.740697,72.9870283 L138.740697,71.6011674 L143.978052,71.6013322" id="Fill-21" fill="#FFFFFF"></path>
                    <polyline id="Fill-22" fill="#FFFFFF" points="154.597107 75.0504103 154.597107 76.5669631 148.752812 76.5669631 148.752812 66.7883124 154.443184 66.7883124 154.443184 68.2908567 150.360748 68.2908567 150.360748 70.8447039 154.079185 70.8447039 154.079185 72.3152755 150.360748 72.3152755 150.360748 75.0504103 154.597107 75.0504103"></polyline>
                    <path d="M169.878782,75.032776 C170.732627,75.032776 171.346999,74.4546335 171.346999,73.6490575 C171.346999,72.8573253 170.732627,72.2691296 169.878782,72.2691296 L167.528644,72.2691296 L167.528644,75.0326112 L169.878782,75.0326112 L169.878782,75.032776 Z M171.130647,69.5367966 C171.130647,68.8048893 170.562518,68.2646524 169.792902,68.2646524 L167.528644,68.2646524 L167.528644,70.8092704 L169.792902,70.8092704 C170.572428,70.8092704 171.130647,70.2589803 171.130647,69.5369614 L171.130647,69.5367966 Z M171.593078,71.4716292 C172.471695,71.8895794 172.985324,72.7800309 172.985324,73.8268841 C172.985324,75.365521 171.655836,76.5671279 169.967965,76.5671279 L165.943168,76.5671279 L165.943168,66.7884773 L169.891994,66.7884773 C171.530319,66.7884773 172.73429,67.8640069 172.73429,69.3029356 C172.73429,70.1546575 172.298284,71.0116532 171.593078,71.4712996 L171.593078,71.4716292 L171.593078,71.4716292 Z" id="Fill-23" fill="#FFFFFF"></path>
                    <path d="M185.964755,71.6773082 C185.964755,69.6587536 184.460205,68.1487931 182.438723,68.1487931 C180.417242,68.1487931 178.904433,69.6727622 178.904433,71.6773082 C178.904433,73.6820189 180.417242,75.2058232 182.438723,75.2058232 C184.460205,75.2058232 185.964755,73.6960275 185.964755,71.6773082 Z M182.438723,76.7503931 C179.462653,76.7503931 177.269411,74.5729648 177.269411,71.6773082 C177.269411,68.7816515 179.462653,66.604388 182.438723,66.604388 C185.409839,66.604388 187.599777,68.7776961 187.599777,71.677473 C187.599777,74.5774146 185.409839,76.7505579 182.438723,76.7505579 L182.438723,76.7503931 L182.438723,76.7503931 Z" id="Fill-24" fill="#FFFFFF"></path>
                    <path d="M200.466905,71.6773082 C200.466905,69.6587536 198.962354,68.1487931 196.940873,68.1487931 C194.921042,68.1487931 193.408234,69.6727622 193.408234,71.6773082 C193.408234,73.6820189 194.921042,75.2058232 196.940873,75.2058232 C198.962354,75.2058232 200.466905,73.6960275 200.466905,71.6773082 Z M196.940873,76.7503931 C193.964802,76.7503931 191.771561,74.5729648 191.771561,71.6773082 C191.771561,68.7816515 193.964802,66.604388 196.940873,66.604388 C199.91364,66.604388 202.103578,68.7776961 202.103578,71.677473 C202.103578,74.5774146 199.91364,76.7505579 196.940873,76.7505579 L196.940873,76.7503931 L196.940873,76.7503931 Z" id="Fill-25" fill="#FFFFFF"></path>
                    <path d="M206.267104,73.487382 L207.898823,73.487382 C207.898823,74.5803811 208.798911,75.1843983 209.948381,75.1843983 C210.992152,75.1843983 211.882331,74.6382283 211.882331,73.7388773 C211.882331,72.7660223 210.833605,72.5204601 209.652755,72.2434197 C208.15316,71.8801854 206.432258,71.4668498 206.432258,69.4491193 C206.432258,67.6843674 207.771654,66.6424584 209.860849,66.6424584 C211.986378,66.6424584 213.244849,67.7982489 213.244849,69.6426026 L211.654419,69.6426026 C211.654419,68.6671107 210.846817,68.1389047 209.824515,68.1389047 C208.846805,68.1389047 208.040855,68.5853665 208.040855,69.3808893 C208.040855,70.2840309 209.046641,70.5294283 210.210975,70.8066335 C211.735344,71.1838764 213.528914,71.6191313 213.528914,73.7207485 C213.528914,75.6773356 211.946741,76.7167725 209.963245,76.7167725 C207.765048,76.7167725 206.267104,75.4855004 206.267104,73.487382" id="Fill-26" fill="#FFFFFF"></path>
                    <polyline id="Fill-27" fill="#FFFFFF" points="224.564486 68.2850884 221.690811 68.2850884 221.690811 76.5669631 220.082214 76.5669631 220.082214 68.2850884 217.21019 68.2850884 217.21019 66.7883124 224.564486 66.7883124 224.564486 68.2850884"></polyline>
                </g>
            </g>
        </g>
    </g>
</svg>