<?xml version="1.0" encoding="UTF-8"?>
<svg width="226px" height="53px" viewBox="0 0 226 53" version="1.1" xmlns="http://www.w3.org/2000/svg" xmlns:xlink="http://www.w3.org/1999/xlink">
    <!-- Generator: Sketch 61.2 (89653) - https://sketch.com -->
    <title>2 - CHARTE / Logo/ Simple / Langoost</title>
    <desc>Created with Sketch.</desc>
    <defs>
        <polygon id="path-1" points="0.0100173913 0.0189185668 19.1063374 0.0189185668 19.1063374 52.6300769 0.0100173913 52.6300769"></polygon>
        <polygon id="path-3" points="0.00933069307 0.0462835443 148.65431 0.0462835443 148.65431 52.8 0.00933069307 52.8"></polygon>
    </defs>
    <g id="2---CHARTE-/-Logo/-Simple-/-Langoost" stroke="none" stroke-width="1" fill="none" fill-rule="evenodd">
        <g id="Group-5">
            <g id="Group-3">
                <mask id="mask-2" fill="white">
                    <use xlink:href="#path-1"></use>
                </mask>
                <g id="Clip-2"></g>
                <polygon id="Fill-1" fill="#402955" mask="url(#mask-2)" points="0 0.0189185668 7.36695652 0.0189185668 7.36695652 45.1486436 19.1063374 45.1486436 19.1063374 52.6300769 0 52.6300769"></polygon>
            </g>
            <path d="M37.7229867,34.0694994 L34.7863982,12.1099176 L31.8499841,34.0694994 L37.7229867,34.0694994 Z M48,52.8 L40.2239696,52.8 L38.7286462,41.60454 L30.8711795,41.60454 L29.3490013,52.8 L21.6,52.8 L24.101506,34.150796 L29.5390774,0 L40.088475,0 L45.4988427,34.0694994 L48,52.8 Z" id="Fill-4" fill="#402955"></path>
            <g id="Group-9" transform="translate(52.800000, 0.000000)">
                <mask id="mask-4" fill="white">
                    <use xlink:href="#path-3"></use>
                </mask>
                <g id="Clip-6"></g>
                <polygon id="Fill-5" fill="#402955" mask="url(#mask-4)" points="7.23177822 0.853822785 14.071831 30.4998532 14.071831 0.853822785 20.758664 0.853822785 20.758664 33.2613258 20.758664 51.966562 13.5358891 51.966562 6.95120264 23.2580658 6.95120264 51.966562 0.00933069307 51.966562 0.00933069307 0.853822785"></polygon>
                <path d="M36.9526548,52.8001671 C30.0445043,52.8001671 26.5906746,49.2142785 26.5906746,42.0408304 L26.5906746,10.7795544 C26.5906746,3.62448608 30.0445043,0.0462835443 36.9526548,0.0462835443 C43.8778297,0.0462835443 47.340499,3.62448608 47.340499,10.7795544 L47.340499,17.6570886 L40.1173967,17.6570886 L40.1173967,10.7795544 C40.1173967,8.48709873 39.0708858,7.3318481 36.9780277,7.31463797 L36.9274455,7.31463797 C34.8512845,7.31463797 33.8132858,8.46988861 33.8132858,10.7795544 L33.8132858,42.0408304 C33.8132858,44.3504962 34.8597967,45.5059139 36.9526548,45.5059139 C39.0620462,45.5059139 40.1173967,44.3504962 40.1173967,42.0408304 L40.1173967,30.0572354 L36.4679498,30.0572354 L36.4679498,22.7631494 L47.340499,22.7631494 L47.340499,42.0408304 C47.340499,49.1960658 43.8778297,52.7827899 36.9526548,52.8001671 Z" id="Fill-7" fill="#402955" mask="url(#mask-4)"></path>
                <path d="M127.904158,10.7795544 C127.904158,3.62448608 131.358152,0.0462835443 138.267776,0.0462835443 C145.192132,0.0462835443 148.65431,3.62448608 148.65431,10.7795544 L148.65431,17.6570886 L141.432026,17.6570886 L141.432026,10.7795544 C141.432026,8.48709873 140.386007,7.3318481 138.29233,7.31463797 L138.241584,7.31463797 C136.164277,7.31463797 135.128079,8.46988861 135.128079,10.7795544 L135.128079,15.4162633 C135.128079,17.6915089 137.382178,20.4793823 141.892013,23.7787139 C146.400211,27.0616709 148.65431,30.9952709 148.65431,35.5801823 L148.65431,42.0408304 C148.65431,49.2142785 145.200317,52.8001671 138.29233,52.8001671 C131.367974,52.7827899 127.904158,49.1960658 127.904158,42.0408304 L127.904158,35.1634633 L135.128079,35.1634633 L135.128079,42.0408304 C135.128079,44.3504962 136.182284,45.5059139 138.29233,45.5059139 C140.386007,45.5059139 141.432026,44.3504962 141.432026,42.0408304 L141.432026,36.205762 C141.432026,33.7398684 139.17629,30.8562532 134.668092,27.5560861 C130.159894,24.2739646 127.904158,20.2795443 127.904158,15.5724911 L127.904158,10.7795544" id="Fill-8" fill="#402955" mask="url(#mask-4)"></path>
            </g>
            <polyline id="Fill-10" fill="#402955" points="225.6 0 225.6 7.50828697 218.559041 7.50828697 218.559041 52.8 211.040959 52.8 211.040959 7.50828697 204 7.50828697 204 0 225.6 0"></polyline>
            <path d="M118.80041,16.8254601 C114.182315,16.8254601 110.425548,20.5822661 110.425548,25.200082 C110.425548,29.8177339 114.182315,33.5745399 118.80041,33.5745399 C123.417849,33.5745399 127.174616,29.8177339 127.174616,25.200082 C127.174616,20.5822661 123.417849,16.8254601 118.80041,16.8254601 Z M118.80041,40.8 C110.198278,40.8 103.2,33.8018124 103.2,25.200082 C103.2,16.5980235 110.198278,9.6 118.80041,9.6 C127.402214,9.6 134.4,16.5980235 134.4,25.200082 C134.4,33.8018124 127.402214,40.8 118.80041,40.8 L118.80041,40.8 Z" id="Fill-11" fill="#FE6C35"></path>
            <path d="M157.2,11.9890706 C149.915848,11.9890706 143.989291,17.9155802 143.989291,25.2 C143.989291,32.4844198 149.915848,38.4109294 157.2,38.4109294 C164.484478,38.4109294 170.411198,32.4844198 170.411198,25.2 C170.411198,17.9155802 164.484478,11.9890706 157.2,11.9890706 Z M157.2,45.6 C145.951313,45.6 136.8,36.4485966 136.8,25.2 C136.8,13.9514034 145.951313,4.8 157.2,4.8 C168.448687,4.8 177.6,13.9514034 177.6,25.2 C177.6,36.4485966 168.448687,45.6 157.2,45.6 L157.2,45.6 Z" id="Fill-12" fill="#FE6C35"></path>
        </g>
    </g>
</svg>