<?xml version="1.0" encoding="UTF-8"?>
<svg width="223px" height="84px" viewBox="0 0 223 84" version="1.1" xmlns="http://www.w3.org/2000/svg" xmlns:xlink="http://www.w3.org/1999/xlink">
    <!-- Generator: Sketch 61.2 (89653) - https://sketch.com -->
    <title>2 - CHARTE / Logo/ Simple / Langoost background violet</title>
    <desc>Created with Sketch.</desc>
    <defs>
        <polygon id="path-1" points="0.00811713031 0.0144113924 15.4819379 0.0144113924 15.4819379 40.0914456 0.00811713031 40.0914456"></polygon>
        <polygon id="path-3" points="0.00771127379 0.0362905063 122.85412 0.0362905063 122.85412 41.4 0.00771127379 41.4"></polygon>
    </defs>
    <g id="2---CHARTE-/-Logo/-Simple-/-Langoost-background-violet" stroke="none" stroke-width="1" fill="none" fill-rule="evenodd">
        <g id="Group-8">
            <rect id="Rectangle" fill="#402955" x="0" y="0" width="225.6" height="84"></rect>
            <g id="Langoost-white-orange" transform="translate(21.600000, 21.600000)">
                <g id="Group-3" transform="translate(0.000000, 0.655063)">
                    <mask id="mask-2" fill="white">
                        <use xlink:href="#path-1"></use>
                    </mask>
                    <g id="Clip-2"></g>
                    <polyline id="Fill-1" fill="#FFFFFE" mask="url(#mask-2)" points="0 40.0914456 0 0.0144113924 5.96947291 0.0144113924 5.96947291 34.3923949 15.4819379 34.3923949 15.4819379 40.0914456 0 40.0914456"></polyline>
                </g>
                <path d="M31.1630161,26.5294082 L28.8848082,9.86132278 L26.6067356,26.5294082 L31.1630161,26.5294082 Z M37.1955321,26.5294082 L39.1359321,40.7465089 L33.1032808,40.7465089 L31.9432076,32.2487658 L25.847378,32.2487658 L24.6664709,40.7465089 L18.6547889,40.7465089 L20.5954594,26.5911152 L24.8139321,0.669474684 L32.998164,0.669474684 L37.1955321,26.5294082 L37.1955321,26.5294082 Z" id="Fill-4" fill="#FFFFFE"></path>
                <g id="Group-9" transform="translate(42.209078, 0.000000)">
                    <mask id="mask-4" fill="white">
                        <use xlink:href="#path-3"></use>
                    </mask>
                    <g id="Clip-6"></g>
                    <polyline id="Fill-5" fill="#FFFFFE" mask="url(#mask-4)" points="0.00771127379 0.669474684 5.97664305 0.669474684 11.6295479 23.9146576 11.6295479 0.669474684 17.1558255 0.669474684 17.1558255 40.7465089 11.1866231 40.7465089 5.74476369 18.236438 5.74476369 40.7465089 0.00771127379 40.7465089 0.00771127379 0.669474684"></polyline>
                    <path d="M39.1241622,32.9638329 C39.1241622,38.574188 36.2624679,41.3865057 30.5392146,41.400131 C24.830031,41.400131 21.9756422,38.5884684 21.9756422,32.9638329 L21.9756422,8.45215063 C21.9756422,2.84192658 24.830031,0.0362905063 30.5392146,0.0362905063 C36.2624679,0.0362905063 39.1241622,2.84192658 39.1241622,8.45215063 L39.1241622,13.8447627 L33.1546893,13.8447627 L33.1546893,8.45215063 C33.1546893,6.65465696 32.2898091,5.74883544 30.5601839,5.73534114 L30.5183807,5.73534114 C28.8025546,5.73534114 27.9447092,6.64116266 27.9447092,8.45215063 L27.9447092,32.9638329 C27.9447092,34.7748209 28.8095895,35.6807734 30.5392146,35.6807734 C32.2825037,35.6807734 33.1546893,34.7748209 33.1546893,32.9638329 L33.1546893,23.5676051 L30.1386343,23.5676051 L30.1386343,17.8483785 L39.1241622,17.8483785 L39.1241622,32.9638329" id="Fill-7" fill="#FFFFFE" mask="url(#mask-4)"></path>
                    <path d="M105.705329,8.45215063 C105.705329,2.84192658 108.559854,0.0362905063 114.270255,0.0362905063 C119.992832,0.0362905063 122.85412,2.84192658 122.85412,8.45215063 L122.85412,13.8447627 L116.885324,13.8447627 L116.885324,8.45215063 C116.885324,6.65465696 116.020849,5.74883544 114.290548,5.73534114 L114.248609,5.73534114 C112.531836,5.73534114 111.675479,6.64116266 111.675479,8.45215063 L111.675479,12.0877519 C111.675479,13.8717513 113.53836,16.0576975 117.265476,18.6446734 C120.991239,21.2188101 122.85412,24.3031101 122.85412,27.8980975 L122.85412,32.9638329 C122.85412,38.5884684 119.999596,41.400131 114.290548,41.400131 C108.567971,41.3865057 105.705329,38.574188 105.705329,32.9638329 L105.705329,27.5713519 L111.675479,27.5713519 L111.675479,32.9638329 C111.675479,34.7748209 112.546717,35.6807734 114.290548,35.6807734 C116.020849,35.6807734 116.885324,34.7748209 116.885324,32.9638329 L116.885324,28.3886089 C116.885324,26.4551241 115.021089,24.1941076 111.295327,21.6064766 C107.569564,19.0329949 105.705329,15.9010063 105.705329,12.2102487 L105.705329,8.45215063" id="Fill-8" fill="#FFFFFE" mask="url(#mask-4)"></path>
                </g>
                <polyline id="Fill-10" fill="#FFFFFE" points="184.729652 0.669474684 184.729652 6.36852532 179.139654 6.36852532 179.139654 40.7465089 173.170858 40.7465089 173.170858 6.36852532 167.580861 6.36852532 167.580861 0.669474684 184.729652 0.669474684"></polyline>
                <path d="M97.653542,14.0125899 C93.846202,14.0125899 90.7489757,17.0119937 90.7489757,20.6988209 C90.7489757,24.3855171 93.846202,27.3849209 97.653542,27.3849209 C101.460341,27.3849209 104.557567,24.3855171 104.557567,20.6988209 C104.557567,17.0119937 101.460341,14.0125899 97.653542,14.0125899 Z M97.653542,33.1536703 C90.5616053,33.1536703 84.791949,27.5663734 84.791949,20.6988209 C84.791949,13.8310063 90.5616053,8.24384051 97.653542,8.24384051 C104.745208,8.24384051 110.514459,13.8310063 110.514459,20.6988209 C110.514459,27.5663734 104.745208,33.1536703 97.653542,33.1536703 L97.653542,33.1536703 Z" id="Fill-11" fill="#FE6C35"></path>
                <path d="M129.437654,10.0979316 C123.402026,10.0979316 118.491298,14.8535601 118.491298,20.6988209 C118.491298,26.5440816 123.402026,31.2997101 129.437654,31.2997101 C135.473552,31.2997101 140.384416,26.5440816 140.384416,20.6988209 C140.384416,14.8535601 135.473552,10.0979316 129.437654,10.0979316 Z M129.437654,37.0684595 C120.117024,37.0684595 112.534271,29.725069 112.534271,20.6988209 C112.534271,11.6725728 120.117024,4.32918228 129.437654,4.32918228 C138.758284,4.32918228 146.341037,11.6725728 146.341037,20.6988209 C146.341037,29.725069 138.758284,37.0684595 129.437654,37.0684595 L129.437654,37.0684595 Z" id="Fill-12" fill="#FE6C35"></path>
            </g>
        </g>
    </g>
</svg>